<?xml version="1.0" encoding="utf-8"?>
<!-- Generator: Adobe Illustrator 25.3.1, SVG Export Plug-In . SVG Version: 6.00 Build 0)  -->
<svg version="1.1" id="Layer_1" xmlns="http://www.w3.org/2000/svg" xmlns:xlink="http://www.w3.org/1999/xlink" x="0px" y="0px"
	 viewBox="0 0 512 512" style="enable-background:new 0 0 512 512;" xml:space="preserve">
<style type="text/css">
	.stZero{fill:#05284F;opacity: 1;}
	.stmine{fill:none;stroke:#05284F;stroke-width:48;stroke-miterlimit:10;}
</style>
<path class="stZero" d="M496,98.8c0-13.3-10.7-24-24-24H40c-13.3,0-24,10.7-24,24v24h480V98.8z M480.1,24c0-13.3-10.7-24-24-24h-400
	c-13.3,0-24,10.7-24,24v24h448V24z"/>
<path class="stmine" d="M457.5,176.7H54.5c-15.9,0-28.8,12.7-28.8,28.4c0,0.9,0,1.7,0.1,2.6l23.6,255.2c1.3,14.6,13.8,25.8,28.7,25.8
	h356c14.9,0,27.3-11.2,28.7-25.8l23.6-255.2c1.4-15.6-10.2-29.4-26.1-30.8C459.3,176.7,458.4,176.7,457.5,176.7z"/>
<g>
	<path class="stZero" d="M421.6,422.4l2-35.1H89.4l2.2,35.1H421.6z M425.6,350.2l2-35.1H84.9l2.2,35.1H425.6z M429.6,278l2-35.1H80.4
		l2.2,35.1H429.6z"/>
</g>
</svg>
