<?xml version="1.0" encoding="utf-8"?>
<!-- Generator: Adobe Illustrator 25.4.1, SVG Export Plug-In . SVG Version: 6.00 Build 0)  -->
<svg version="1.1" id="b7e280a8-b3d1-4693-8f85-1d104e0d035a"
	 xmlns="http://www.w3.org/2000/svg" xmlns:xlink="http://www.w3.org/1999/xlink" x="0px" y="0px" viewBox="0 0 794.1 651.8"
	 style="enable-background:new 0 0 794.1 651.8;" xml:space="preserve">
<style type="text/css">
	.st0{fill:#E9D0C1;}
	.st1{fill:#E6A684;}
	.st2{fill:#FDA57D;}
	.st3{fill:#68523B;}
	.st4{fill:#2F2E41;}
	.st5{fill:#FFFFFF;}
</style>
<path class="st0" d="M783.4,0H165.3c-0.1,2-0.2,4-0.2,6c0,41.6,25.7,78.8,64.5,93.5c9.7,54.4,61.6,90.6,116,80.9
	c17.6-3.1,34.1-10.9,47.6-22.6c15.8,29,44.9,48.3,77.8,51.7V641h26V208.7c15.6-2.5,30.5-8.7,43.2-18.1
	c37.9,40.2,101.2,42.1,141.4,4.2c14.6-13.8,24.7-31.6,29.1-51.2c54.5-9.2,91.2-60.8,81.9-115.3C791.1,18.5,787.9,8.9,783.4,0z"/>
<path class="st1" d="M392.8,535.1c-0.5,0-1,0-1.5-0.1l-115-12.3c-3.6-0.4-6.2-3.6-5.8-7.2c0,0,0,0,0,0l1.6-14.7l0.5,0.1l-0.5-0.1
	c0.4-3.6,3.6-6.1,7.2-5.8l115,12.3c7.6,0.8,13.1,7.7,12.3,15.3C405.8,529.7,399.8,535.1,392.8,535.1L392.8,535.1z"/>
<path class="st2" d="M335.1,639.9h-123c-3.6,0-6.5-2.9-6.5-6.5v-14.8c0-3.6,2.9-6.5,6.5-6.5h123c3.6,0,6.5,2.9,6.5,6.5v14.8
	C341.6,637,338.7,639.9,335.1,639.9z"/>
<path class="st1" d="M397.5,634.8c-0.7,0-1.4-0.1-2-0.3l-116.8-38.6c-3.4-1.1-5.3-4.8-4.1-8.2l4.6-14l0.5,0.2l-0.5-0.2
	c1.1-3.4,4.8-5.3,8.2-4.1l116.8,38.6c3.4,1.1,5.3,4.8,4.1,8.2l-4.6,14C402.8,633,400.3,634.8,397.5,634.8L397.5,634.8z"/>
<path class="st1" d="M242.9,640.1c-0.1,0-0.2,0-0.3,0c-1.7-0.1-3.3-0.9-4.5-2.1l-9.9-11c-2.4-2.7-2.2-6.8,0.5-9.2l52.4-47.3
	c2.7-2.4,6.8-2.2,9.2,0.5l9.9,11c2.4,2.7,2.2,6.8-0.5,9.2l-52.4,47.3C246.1,639.5,244.5,640.1,242.9,640.1z"/>
<circle class="st1" cx="406.5" cy="417.6" r="51"/>
<path class="st3" d="M431.4,640.1H323.3c-3.6,0-6.5-2.9-6.5-6.5c0-1.2,0.3-2.3,0.9-3.3l83.2-144.2c1.8-3.1,5.8-4.2,8.9-2.4
	c1,0.6,1.8,1.4,2.4,2.4l54.1,93.6c11.1,19.2,4.5,43.8-14.7,54.9C445.4,638.3,438.5,640.1,431.4,640.1z"/>
<path class="st4" d="M364.5,437c-3.3-0.1-7.4-0.2-10.6-2.5c-1.9-1.5-3.1-3.7-3.2-6.1c-0.1-1.7,0.6-3.4,1.9-4.5
	c1.7-1.4,4.1-1.7,6.7-1l-2.7-19.7l2-0.3l3.2,23.2l-1.7-0.8c-1.9-0.9-4.6-1.3-6.2,0.1c-0.8,0.7-1.2,1.8-1.2,2.9
	c0.1,1.8,1,3.4,2.4,4.5c2.5,1.8,5.7,2,9.5,2.1L364.5,437z"/>
<rect x="370" y="405" class="st4" width="10.8" height="2"/>
<path class="st3" d="M739.5,640.9H1.2c-0.7,0-1.2-0.5-1.2-1.2c0-0.7,0.5-1.2,1.2-1.2c0,0,0,0,0,0h738.3c0.7,0,1.2,0.5,1.2,1.2
	S740.1,640.9,739.5,640.9C739.5,640.9,739.5,640.9,739.5,640.9z"/>
<path class="st0" d="M421.7,400l-6.2-40.5c-0.3-1.7-2.8-2.7-5.8-2.2l-12.1,1.9c-2.9,0.5-5.1,2.2-4.8,3.9l6,38.8
	c-9.5,7.1-11.4,20.6-4.3,30.1c7.1,9.5,20.6,11.4,30.1,4.3c9.5-7.1,11.4-20.6,4.3-30.1C426.9,403.6,424.5,401.5,421.7,400L421.7,400z
	"/>
<circle class="st3" cx="411.6" cy="419" r="9.5"/>
<path class="st3" d="M247.3,534.9c-2.9,0-5.7-1-7.8-2.9l-56.8-49.1c-5-4.3-5.6-11.9-1.2-16.9c0,0,0,0,0,0c0.2-0.2,0.4-0.4,0.6-0.6
	l58.9-58.9c4.7-4.7,12.3-4.7,16.9,0c0,0,0,0,0,0l53,53c4.7,4.7,4.7,12.3,0,16.9l-55,55C253.5,533.6,250.4,534.9,247.3,534.9z
	 M182.7,466l0.7,0.7c-0.2,0.2-0.3,0.3-0.5,0.5c-3.6,4.2-3.1,10.5,1,14.1c0,0,0,0,0,0l56.8,49.1c4,3.4,9.9,3.2,13.6-0.5l55-55
	c3.9-3.9,3.9-10.2,0-14.1l-53-53c-3.9-3.9-10.2-3.9-14.1,0c0,0,0,0,0,0l-58.9,58.9L182.7,466z"/>
<path class="st3" d="M243.8,517.3l-46-41.8l52.9-52.9l43.9,43.9L243.8,517.3z M200.8,475.3l43,39.2l48.1-48.1l-41.1-41.1
	L200.8,475.3z"/>
<circle class="st0" cx="247.3" cy="469.4" r="24.6"/>
<path class="st5" d="M259.4,464.5c2.9,2.8,3.1,12.7-1.4,17.5c-4.5,4.8-11.9,2.6-14.8-0.2s-0.3-5,4.2-9.8S256.5,461.7,259.4,464.5z"
	/>
<circle class="st3" cx="234.4" cy="469.8" r="7.3"/>
<circle class="st3" cx="247.5" cy="455.8" r="7.3"/>
<path class="st1" d="M412.5,651.8c-3.4,0-6.2-2.6-6.5-6l-9.4-115.3c-0.6-7.6,5.1-14.3,12.7-15s14.3,5.1,15,12.7l9.4,115.3
	c0.3,3.6-2.4,6.7-6,7l-14.7,1.2C412.9,651.8,412.7,651.8,412.5,651.8z"/>
<path d="M451,269.6c-0.4-0.5-1.4-1.1-2.5-1.1c-1,0-2.1,0.5-2.1,1.5l0.3,50.4l0.1,0.2c-3.4-2.3-8.6-2.7-13.7-0.8
	c-7.3,2.8-11.6,9.3-9.6,14.6c2,5.3,9.5,7.3,16.8,4.6c6.2-2.3,10.2-7.4,10.1-12.1l-0.2-38.4c1.5,0.5,17.2,5.4,17.2,15.7
	c0,6.3-2,10.4-4.1,13c-0.4,0.5,0.3,1.3,0.9,0.9c3.5-2.7,7.1-7.6,7.1-16.4C471.3,286.2,455.3,275.9,451,269.6z"/>
<path d="M523.7,214.1c-0.4-0.5-1.4-1.1-2.5-1.1c-1,0-2.1,0.5-2.1,1.5l0.3,50.4l0.1,0.2c-3.4-2.3-8.6-2.7-13.7-0.8
	c-7.3,2.8-11.6,9.3-9.6,14.6c2,5.3,9.5,7.3,16.8,4.6c6.2-2.3,10.2-7.4,10.1-12.1L523,233c1.5,0.5,17.2,5.4,17.2,15.7
	c0,6.3-2,10.4-4.1,13c-0.4,0.5,0.3,1.3,0.9,0.9c3.5-2.7,7.1-7.6,7.1-16.4C544,230.8,528.1,220.4,523.7,214.1z"/>
<path d="M499.6,321.6c-0.4-0.5-1.4-1.1-2.5-1.1c-1,0-2.1,0.5-2.1,1.5l0.3,50.4l0.1,0.2c-3.4-2.3-8.6-2.7-13.7-0.8
	c-7.3,2.8-11.6,9.3-9.6,14.6c2,5.3,9.5,7.3,16.8,4.6c6.2-2.3,10.2-7.4,10.1-12.1l-0.2-38.4c1.5,0.5,17.2,5.4,17.2,15.7
	c0,6.3-2,10.4-4.1,13c-0.4,0.5,0.3,1.3,0.9,0.9c3.5-2.7,7.1-7.6,7.1-16.4C519.9,338.2,503.9,327.8,499.6,321.6z"/>
</svg>
