<?xml version="1.0" encoding="utf-8"?>
<!-- Generator: Adobe Illustrator 25.4.1, SVG Export Plug-In . SVG Version: 6.00 Build 0)  -->
<svg version="1.1" id="a5531c2a-42c0-48e3-8177-211774c58b20"
	 xmlns="http://www.w3.org/2000/svg" xmlns:xlink="http://www.w3.org/1999/xlink" x="0px" y="0px" viewBox="0 0 834.4 597.3"
	 style="enable-background:new 0 0 834.4 597.3;" xml:space="preserve">
<style type="text/css">
	.st0{fill:#E9D0C1;stroke:#68523B;stroke-miterlimit:10;}
	.st1{fill:#68523B;}
	.st2{opacity:0.1;enable-background:new    ;}
	.st3{fill:#3F3D56;}
	.st4{fill:#9F616A;}
	.st5{fill:#2F2E41;}
	.st6{fill:#E9D0C1;}
	.st7{fill:#F2F2F2;}
	.st8{fill:#CBCBCB;}
</style>
<circle class="st0" cx="676.4" cy="158" r="158"/>
<polygon class="st1" points="692.2,99.2 692.2,165.3 596,165.3 578.3,186.7 580.3,165.3 571.6,165.3 571.6,99.2 "/>
<rect x="648.8" y="122" class="st2" width="43.4" height="43.4"/>
<polygon class="st1" points="658.4,131.5 778.9,131.5 778.9,197.7 770.3,197.7 772.3,219 754.5,197.7 658.4,197.7 "/>
<ellipse class="st2" cx="579" cy="194.7" rx="26.5" ry="2.6"/>
<ellipse class="st2" cx="772.3" cy="229.3" rx="30.1" ry="2.9"/>
<path class="st3" d="M228.5,443.4h48.4c0,2.1,52.9,3.8,52.9,3.8c1.2,0.9,2.2,1.9,3.2,3c2.8,3.4,4.4,7.6,4.4,12v3
	c0,10.4-8.4,18.8-18.8,18.8h-90c-10.4,0-18.8-8.4-18.8-18.8v-3C209.8,451.8,218.2,443.4,228.5,443.4z"/>
<rect x="263.7" y="483.2" class="st3" width="19.5" height="112.7"/>
<path class="st3" d="M338.8,595.2c0,2.1-29.6,0.8-66.1,0.8c-36.5,0-66.1,1.3-66.1-0.8s29.6-18.8,66.1-18.8S338.8,593.1,338.8,595.2z
	"/>
<polygon class="st4" points="351.9,582.3 366.4,582.3 373.3,526.3 351.9,526.3 "/>
<path class="st5" d="M348.2,577.5l28.6,0h0c10.1,0,18.2,8.2,18.2,18.2v0.6l-46.8,0L348.2,577.5z"/>
<polygon class="st4" points="394.8,582.3 409.4,582.3 416.3,526.3 394.8,526.3 "/>
<path class="st5" d="M391.1,577.5l28.6,0h0c10.1,0,18.2,8.2,18.2,18.2v0.6l-46.8,0L391.1,577.5z"/>
<path class="st4" d="M344.3,405c-0.8-6.1-6.3-10.3-12.3-9.6c-0.6,0.1-1.3,0.2-1.9,0.4l-16.2-19.4l-14.2,7l23.2,27
	c2.2,5.7,8.6,8.6,14.4,6.4C342,414.9,344.9,410,344.3,405z"/>
<polygon class="st0" points="289.9,290 299.4,293.9 301.7,320.7 327.1,390.2 305.5,397.3 281.5,350.7 "/>
<circle class="st4" cx="265.3" cy="233.8" r="25.3"/>
<path class="st5" d="M261.4,222c0,0,1.1-15.3,14.8-9.1c13.7,6.3,12.8-11,8.6-14s-4-3.8-19.1-1.8c-15.1,2-44.5,5.5-35,35.9
	s23.5,22.5,23.5,22.5s-12.9-27.3-5.3-22l7.6,5.2l4-0.9L261.4,222z"/>
<path class="st6" d="M243,232.1l-5.1-27.9c-0.4-2.1,1-4.1,3.1-4.4c0,0,0,0,0,0l6-1.1l5.8,31.6L243,232.1z"/>
<circle class="st6" cx="248.8" cy="236.5" r="11.5"/>
<circle class="st7" cx="248.8" cy="236.5" r="6.9"/>
<circle class="st6" cx="248.8" cy="236.5" r="2.3"/>
<path class="st5" d="M223.8,407.5c0,0-8.5,44.8,23.8,50.5s78.8,9.7,78.8,9.7l20.9,97.5l28.1-2.5c0,0-3.7-117.4-12.9-126.6
	s-52.9-36.1-52.9-36.1L223.8,407.5z"/>
<path class="st5" d="M286.8,388.7l14.1,14.1c0,0,101.8,16.4,105.8,39.9c5.9,35.5,12.9,112.7,12.9,112.7l-30.6-2.3l-12-87.8l-49-11.1
	l-55.7-30.4L286.8,388.7z"/>
<path class="st6" d="M286,280.2l-8.2-10.9l-26.6-0.4l0,0c-16.9,9-27.4,26.6-27.4,45.7v68.7c0,0,0.4,9.1-1.6,30.1
	c-1.7,18.1,94.7-10.6,94.7-10.6l-12.5-102C304.4,300.9,305.4,284.7,286,280.2z"/>
<path class="st4" d="M310.3,427.7c-0.8-6.1-6.3-10.3-12.3-9.6c-0.6,0.1-1.3,0.2-1.9,0.4l-16.2-19.4l-14.2,7l23.2,27
	c2.2,5.7,8.6,8.6,14.4,6.4C308.1,437.7,311,432.8,310.3,427.7L310.3,427.7z"/>
<path class="st0" d="M243.2,291.4l-8.4-2.8c0,0-10.1,2.2-16.1,15.8s0.1,69.1,0.1,69.1l62,53.5l11.7-22l-34.4-46.5
	C258.2,358.5,272.9,308.4,243.2,291.4z"/>
<path class="st8" d="M504,597.3H1c-0.6,0-1-0.4-1-1s0.4-1,1-1h503c0.6,0,1,0.4,1,1S504.6,597.3,504,597.3z"/>
<path d="M585.7,140.4c0.7,2.3,3.8,3.3,6.9,2.3c2.6-0.8,4.5-2.9,4.5-4.8l0,0l-0.1-19c0-0.2,0.1-0.5,0.4-0.5c0.3-0.1,19.2-4,19.4-4
	c0.2-0.1,0.6,0.1,0.6,0.5l0.1,15.7c-1.4-0.9-3.5-1.2-5.5-0.5c-3.1,1-5.1,3.6-4.4,5.9c0.7,2.3,3.8,3.3,6.9,2.3c2.7-0.9,4.6-3,4.5-5.1
	l-0.1-22c0-0.6-0.5-0.7-1-0.6c-0.5,0.1-21.5,4.5-21.8,4.5c-0.3,0.1-0.6,0.2-0.6,0.6l0.1,19.2c-1.4-0.9-3.5-1.2-5.6-0.5
	C587,135.5,585,138.1,585.7,140.4"/>
<path d="M747.5,146.6c0-0.6-0.5-0.8-1.1-0.6c-0.5,0.1-22.6,4.7-22.9,4.8c-0.5,0.1-22.6,4.7-22.9,4.8c-0.3,0.1-0.6,0.2-0.6,0.7
	l0.2,20.2c-1.4-1-3.6-1.2-5.8-0.5c-3.3,1-5.3,3.8-4.6,6.2c0.8,2.4,4,3.5,7.3,2.4c2.8-0.9,4.7-3,4.7-5.1l0,0l-0.1-19.9
	c0-0.2,0.2-0.5,0.5-0.5c0.3-0.1,20.1-4.2,20.4-4.2c0.3-0.1,0.6,0.1,0.6,0.5l0.1,16.5c-1.4-1-3.6-1.2-5.8-0.5c-3.3,1-5.3,3.8-4.6,6.2
	c0.8,2.4,4,3.5,7.3,2.4c2.9-0.9,4.8-3.2,4.7-5.3l-0.1-19.8c0-0.2,0.1-0.5,0.5-0.6c0.3-0.1,19.9-4.1,20.2-4.2
	c0.3-0.1,0.6,0.1,0.6,0.5l0.1,16.6c-1.4-1-3.6-1.2-5.8-0.5c-3.3,1-5.3,3.8-4.6,6.2c0.8,2.4,4,3.5,7.3,2.4c2.8-0.9,4.7-3.1,4.7-5.2
	L747.5,146.6z"/>
<path d="M628.5,143.7c0,0,1,0,2.6,0c0,0.4,0.1,0.8,0.2,1.2c0.9,2.4,4.3,3.3,7.6,2.1c1.8-0.7,3.3-1.9,4-3.3c1.6,0,2.7,0,2.8,0
	c0.3,0,0.4-0.3,0.4-0.5c0-0.3-0.2-0.5-0.4-0.5c0,0-0.9,0-2.3,0c0.1-0.3,0.1-0.6,0.1-0.9v0c0,0,0-0.1,0-0.1c0-2-0.1-25.1-0.1-25.5
	c0-0.5-0.4-0.7-0.9-0.7c-0.4,0-0.9,0.3-0.9,0.7l0.2,22.6l0,0.1c-1.5-1-3.9-1.2-6.2-0.3c-2.3,0.9-3.9,2.6-4.4,4.3c-1.6,0-2.7,0-2.8,0
	"/>
</svg>
