<?xml version="1.0" encoding="utf-8"?>
<!-- Generator: Adobe Illustrator 25.3.1, SVG Export Plug-In . SVG Version: 6.00 Build 0)  -->
<svg version="1.1" xmlns="http://www.w3.org/2000/svg" xmlns:xlink="http://www.w3.org/1999/xlink" x="0px" y="0px"
	 viewBox="0 0 970 755" style="enable-background:new 0 0 970 755;" xml:space="preserve">
<style type="text/css">
	.stTen{fill:#D0493E;}
</style>
<g id="Layer_1">
</g>
<g id="Amp">
</g>
<g id="Guitar">
	<path class="stTen" d="M916.6,309.6h-61.5c-24.8-27.3-81-80-146.5-80s-121.8,52.7-146.5,80h-61.5c-26.5,0-48,21.5-48,48v336
		c0,26.5,21.5,48,48,48l0,0h416c26.5,0,48-21.5,48-48l0,0v-336C964.6,331,943.2,309.6,916.6,309.6z M708.6,277.6
		c26.9,0,54,14.8,76.2,32H632.4C654.6,292.3,681.7,277.6,708.6,277.6z M916.6,693.6h-416v-192h416V693.6z M916.6,453.6h-416v-96h416
		V453.6z M580.6,629.6c-8.8,0-16,7.2-16,16s7.2,16,16,16s16-7.2,16-16S589.5,629.6,580.6,629.6z M644.6,565.6c8.8,0,16-7.2,16-16
		s-7.2-16-16-16s-16,7.2-16,16S635.8,565.6,644.6,565.6z M548.6,613.6c8.8,0,16-7.2,16-16s-7.2-16-16-16s-16,7.2-16,16
		S539.8,613.6,548.6,613.6z M580.6,565.6c8.8,0,16-7.2,16-16s-7.2-16-16-16s-16,7.2-16,16S571.8,565.6,580.6,565.6z M708.6,565.6
		c8.8,0,16-7.2,16-16s-7.2-16-16-16s-16,7.2-16,16S699.8,565.6,708.6,565.6z M836.6,565.6c8.8,0,16-7.2,16-16s-7.2-16-16-16
		s-16,7.2-16,16S827.8,565.6,836.6,565.6z M772.6,565.6c8.8,0,16-7.2,16-16s-7.2-16-16-16s-16,7.2-16,16S763.8,565.6,772.6,565.6z
		 M612.6,613.6c8.8,0,16-7.2,16-16s-7.2-16-16-16s-16,7.2-16,16S603.8,613.6,612.6,613.6z M804.6,613.6c8.8,0,16-7.2,16-16
		s-7.2-16-16-16s-16,7.2-16,16S795.8,613.6,804.6,613.6z M836.6,629.6c-8.8,0-16,7.2-16,16s7.2,16,16,16s16-7.2,16-16
		S845.5,629.6,836.6,629.6z M772.6,629.6c-8.8,0-16,7.2-16,16s7.2,16,16,16s16-7.2,16-16S781.5,629.6,772.6,629.6z M644.6,629.6
		c-8.8,0-16,7.2-16,16s7.2,16,16,16s16-7.2,16-16S653.5,629.6,644.6,629.6z M868.6,613.6c8.8,0,16-7.2,16-16s-7.2-16-16-16
		s-16,7.2-16,16S859.8,613.6,868.6,613.6z M676.6,613.6c8.8,0,16-7.2,16-16s-7.2-16-16-16s-16,7.2-16,16S667.8,613.6,676.6,613.6z
		 M708.6,629.6c-8.8,0-16,7.2-16,16s7.2,16,16,16s16-7.2,16-16S717.5,629.6,708.6,629.6z M740.6,613.6c8.8,0,16-7.2,16-16
		s-7.2-16-16-16s-16,7.2-16,16S731.8,613.6,740.6,613.6z M564.6,429.6c13.3,0,24-10.7,24-24c0-13.3-10.7-24-24-24s-24,10.7-24,24
		C540.6,418.8,551.4,429.6,564.6,429.6z M644.6,429.6c13.3,0,24-10.7,24-24c0-13.3-10.7-24-24-24s-24,10.7-24,24
		C620.6,418.8,631.4,429.6,644.6,429.6z M527.9,45.5l-46-26.6c-19.4-11.2-44.3-4.6-55.5,14.9c0,0,0,0,0,0l-41.6,72.1
		c-3.5,6-5.5,12.8-5.9,19.7l-4.3,71.4l-32.3,56c-23.2-10.7-48.1-17.3-73.6-16.5c-12.2,0.3-24.3,2.1-36.1,5.2
		c-32.4,8.7-59.8,27.8-76.3,56.5c-9.1,15.9-14.3,33.7-15.1,52c-1.4,27-19.3,52.1-44.1,61.3C66.3,423,40.1,443.2,23.6,472
		c-44.8,77.3-4.4,184,89.8,238.4c53.2,30.7,112.2,38.2,161.5,24.9c38-10.2,70.4-32.7,89.8-66.4c16.7-28.7,21.1-61.4,15.5-94.1
		c-4.4-25.9,8.3-54.1,31-68.8c15.5-9.8,28.3-23.3,37.5-39.1c22.4-38.9,19.6-86.1-2.7-128c-12-22.5-30.2-40.8-51-55.5l32.3-56
		L487,188c5.8-3.8,10.6-9,14.1-15l41.6-72.1C553.9,81.5,547.3,56.8,527.9,45.5L527.9,45.5z M310.9,453.2
		c8.7,32.3-10.5,65.5-42.8,74.1c-32.3,8.7-65.5-10.5-74.1-42.8s10.5-65.5,42.8-74.1S302.2,420.9,310.9,453.2z"/>
</g>
</svg>
