<?xml version="1.0" encoding="utf-8"?>
<!-- Generator: Adobe Illustrator 25.3.1, SVG Export Plug-In . SVG Version: 6.00 Build 0)  -->
<svg version="1.1" id="Layer_1" xmlns="http://www.w3.org/2000/svg" xmlns:xlink="http://www.w3.org/1999/xlink" x="0px" y="0px"
	 viewBox="0 0 512 512" style="enable-background:new 0 0 512 512;" xml:space="preserve">
<style type="text/css">
	.st0{fill:#05284F;}
</style>
<path class="st0" d="M502.6,39L473,9.4c-12.5-12.5-32.8-12.5-45.3,0c0,0,0,0,0,0l-46.3,46.3c-3.9,3.9-6.8,8.6-8.5,13.8l-17.8,53.5
	l-36,36c-15.4-12.9-33.1-23-52.6-27.5c-9.3-2.2-18.9-3.4-28.5-3.4c-26.4,0-51.1,9-69.6,27.4c-10.2,10.2-17.7,22.7-22.1,36.5
	c-6.6,20.2-25.3,35.7-46,37.6c-25.8,2.5-49.9,12.5-68.3,31c-49.8,49.6-40.8,139,19.7,199.6c34.2,34.2,77.5,51.9,117.8,51.9
	c31,0,60.2-10.5,81.8-32.2c18.5-18.4,28.5-42.4,31-68.4c1.9-20.6,17.3-39.4,37.6-46c13.8-4.3,26.3-11.9,36.5-22.1
	c24.9-25,32.4-61.5,24-97.9c-4.5-19.5-14.6-37.2-27.5-52.6l35.9-36l53.4-17.8c5.2-1.7,9.9-4.7,13.8-8.5l46.3-46.3
	C515,71.7,515,51.5,502.6,39L502.6,39z M254.5,304.8c0,26.3-21.3,47.7-47.7,47.7s-47.7-21.3-47.7-47.7c0-26.3,21.3-47.7,47.7-47.7
	S254.5,278.5,254.5,304.8z"/>
</svg>
