<?xml version="1.0" encoding="utf-8"?>
<!-- Generator: Adobe Illustrator 25.4.1, SVG Export Plug-In . SVG Version: 6.00 Build 0)  -->
<svg version="1.1" id="a1e1094a-0c8c-49ef-9e46-7b691cb0c375"
	 xmlns="http://www.w3.org/2000/svg" xmlns:xlink="http://www.w3.org/1999/xlink" x="0px" y="0px" viewBox="0 0 955 680.5"
	 style="enable-background:new 0 0 955 680.5;" xml:space="preserve">
<style type="text/css">
	.st0{fill:#F0EADF;}
	.st1{fill:none;stroke:#535461;stroke-width:2;stroke-miterlimit:10;}
	.st2{opacity:0.5;fill:#68523B;enable-background:new    ;}
	.st3{opacity:0.4;fill:#FFFFFF;enable-background:new    ;}
	.st4{opacity:0.1;fill:#E9D0C1;enable-background:new    ;}
	.st5{fill:#E9D0C1;}
	.st6{fill:url(#SVGID_1_);}
	.st7{fill:url(#SVGID_00000075856228864681050190000001465421493454431151_);}
	.st8{fill:url(#SVGID_00000086690053296354410020000010692712527705488793_);}
	.st9{fill:#333333;}
	.st10{fill:#535461;}
	.st11{opacity:3.000000e-02;enable-background:new    ;}
	.st12{opacity:0.1;}
	.st13{fill:#FDA57D;}
	.st14{fill:#4D8AF0;}
	.st15{fill:#9A4122;}
	.st16{fill:#F2F2F2;}
	.st17{fill:#72351C;}
	.st18{fill:#CBDAE3;}
	.st19{fill:#E9E9E9;}
	.st20{fill:#F48681;}
	.st21{opacity:5.000000e-02;enable-background:new    ;}
</style>
<g>
	<path class="st0" d="M503,293.4c0,0.8,0.7,1.3,1.4,1.1l0.1,0c0.8-0.2,1.4-1.1,1.4-1.9v-18.8v-16l-10.4,3.1v-11.2
		c0-0.8-0.6-1.3-1.4-1.1l-0.1,0c-0.8,0.2-1.4,1.1-1.4,1.9v11.2v22.2l10.4-3.1V293.4z M495.6,276.8v-10.4l7.4-2.2v10.4L495.6,276.8z"
		/>
	<path class="st0" d="M679.2,333.5c-0.6-0.2-40.5-8.4-41.5-8.6c-1-0.2-2,0.1-2,1.2l-0.2,35.5c-2.6-1.8-6.6-2.3-10.6-1
		c-5.9,1.9-9.6,6.9-8.3,11.2c1.4,4.3,7.3,6.3,13.2,4.4c5.1-1.6,8.6-5.5,8.6-9.4l0.2-26.7c0-0.9,0.6-1.1,1.1-1
		c0.5,0.1,36.3,7.5,36.8,7.7c0.5,0.1,0.9,0.7,0.9,1l-0.1,22.1c-2.6-1.8-6.6-2.3-10.6-1c-5.9,1.9-9.6,6.9-8.3,11.2
		c1.4,4.3,7.3,6.3,13.2,4.4c5.2-1.6,8.7-5.7,8.6-9.6l0.3-40.1C680.4,333.9,679.9,333.7,679.2,333.5z M638.6,335.7l0-2.7
		c0-0.9,0.6-1.1,1.1-1c0.5,0.1,36.3,7.6,36.9,7.7c0.5,0.1,0.8,0.6,0.8,1l0,3.1C670.2,342.3,643.9,336.8,638.6,335.7z"/>
	<path class="st0" d="M322,242.8c-5-4.7-11-2.6-15.4,3c0,0,0-33.4,0-33.9c0-0.5-0.6-1.4-2.4-1.4c-1.8,0-2.3,0.9-2.3,1.5v64
		C305.2,271.8,333.7,253.8,322,242.8z M306.6,252.5c2.7-4.8,7.3-6.7,10.9-3.5c6.3,5.6-10.2,18.1-10.9,18.9L306.6,252.5z"/>
	<path class="st0" d="M785.3,341.1c0-5.5-7.5-9.2-9.9-11.5c-0.3-0.3-0.7-0.5-1.3-0.5s-1.1,0.2-1.1,0.7l0.2,24.9l0,0.1
		c-1.7-1.1-4.3-1.3-6.8-0.4c-3.6,1.4-5.7,4.6-4.8,7.2c1,2.6,4.7,3.6,8.3,2.3c3-1.1,5-3.5,5-5.8c0-0.1,0-0.1,0-0.2l-0.1-11.3
		c0.9,0.2,8.5,2,8.5,5.7c0,2.3-1,3.8-2,4.7c-0.2,0.2,0.1,0.5,0.4,0.3c1.7-1,3.5-2.8,3.5-6c0-2-1-3.7-2.3-5.2
		C784.3,345.2,785.3,343.5,785.3,341.1z M782.4,345.6c-2.8-2.8-6.7-4.9-7.5-6.3l0-3c0.6,0.1,8.5,1.9,8.5,5.7
		C783.4,343.5,783,344.7,782.4,345.6z"/>
	<path class="st0" d="M250.2,245.4c-3-0.5-5.8-0.7-8.5-0.6c-0.5-7.2-0.7-15-1.3-22.1c15.4-18.2,29.4-38.6,27.4-59
		c-2.2-21.8-12.8-29.5-25.4-28.3c-12.6,1.2-16,14.7-14.9,27.8c1.2,15.6,2.6,32.2,4,48.9c-10.2,10.8-23.9,23.4-30.1,30.8
		c-24.1,28.7-16.8,55.5-11,65c9.9,16.3,30.7,23.4,46.8,23.2c0,0,0.9,23.8-10,27.6c-2.6,0.9-5.8,0.7-8.8,0.2c4.2-4.5,1.6-12.3-5-16.8
		c-6.3-4.3-13.8-4-16.9,0.5c-3.6,5.4,0.7,13.8,8.3,17.4c4.9,2.6,14.7,6.8,23.9,4.1c15.6-4.7,15.7-33.7,15.7-33.7
		c18.4-4.1,33-18.6,35-42.7C281.1,268,269.6,248.8,250.2,245.4z M237.2,314.8c-12.1,0.6-25.2-6.6-31.1-16.4
		c-16.9-27.9,19.3-58.4,27.3-67.3c0.3,4.3,0.6,10.1,0.9,14.3c-12.6,5-19.5,16.3-22.9,30.6c-0.4,1.5,0.4,3.1,1.8,3.2s2.2-0.4,2.7-2.6
		c2.6-9.8,8.2-18.4,19.1-21.1C236.4,277.5,237.3,299.1,237.2,314.8z M234.9,166.5c-1.1-13.5,2.2-19.4,7-19.9
		c5-0.5,10.9,5.6,12.3,18.3c1.5,13.1-5.9,26.5-15.9,38.9C237.1,190,235.9,177.3,234.9,166.5z M267.1,286.8
		c-1.7,15.6-11.4,24.2-22.8,26.9c0.5-17.2-0.4-38.2-1.8-59.6c1.8,0,3.6,0.2,5.4,0.6C260,257.3,268.6,272.8,267.1,286.8z"/>
	<path class="st0" d="M751.5,390.6c0,0-1.2,0-3.1,0c0.1-0.4,0.2-0.8,0.2-1.2v0c0-0.1,0-0.1,0-0.2c0-2.7-0.1-33.4-0.1-34
		c0-0.6-0.6-0.9-1.2-0.9c-0.6,0-1.2,0.4-1.1,1l0.2,30.1l0.1,0.1c-2-1.4-5.1-1.6-8.2-0.5c-3.1,1.2-5.2,3.4-5.9,5.7
		c-2.1,0-3.6,0-3.7,0c-0.4,0-0.6,0.4-0.6,0.7c0,0.4,0.2,0.7,0.6,0.7c0,0,1.4,0,3.5,0c0,0.5,0.1,1.1,0.3,1.6
		c1.2,3.2,5.7,4.4,10.1,2.7c2.4-0.9,4.3-2.6,5.3-4.4c2.1,0,3.6,0,3.7,0c0.4,0,0.6-0.4,0.6-0.7C752,390.9,751.8,390.6,751.5,390.6z"
		/>
	<path class="st0" d="M732,317.6c0-0.7-0.7-1.1-1.3-1.1c-0.7,0-1.3,0.4-1.3,1.1l0.2,34.8l0.1,0.1c-2.3-1.6-5.9-1.9-9.5-0.5
		c-5,1.9-8,6.4-6.6,10.1c1.4,3.7,6.6,5.1,11.6,3.2c4.3-1.6,7.1-5.1,7-8.4C732.1,353.7,732,318.3,732,317.6z M723.5,363
		c-4.1,0.8-7.8-0.5-8.2-2.9c-0.4-2.4,2.5-4.9,6.6-5.7c4.1-0.8,7.8,0.6,8.2,2.9C730.6,359.6,727.6,362.2,723.5,363z"/>
	<g>
		<path class="st0" d="M542.6,294.4c0-4.3-0.2-53.6-0.2-54.6c0-1-0.9-1.5-1.8-1.5c-0.9,0-1.8,0.6-1.8,1.5l0.3,48.3l0.1,0.2
			c-3.2-2.2-8.2-2.6-13.2-0.7c-7,2.6-11.1,8.9-9.2,14c1.9,5.1,9.1,7,16.1,4.4c5.8-2.2,9.6-6.9,9.7-11.3c0,0,0,0,0,0
			C542.6,294.6,542.6,294.5,542.6,294.4z"/>
	</g>
	<path class="st0" d="M384.3,209.1c-0.7-1-2.6-2-4.5-2c-1.9,0-3.9,0.9-3.9,2.7l0.6,92.6l0.2,0.3c-6.2-4.2-15.8-5-25.2-1.4
		c-13.4,5.1-21.3,17-17.7,26.8c3.7,9.7,17.5,13.5,30.9,8.4c11.4-4.3,18.8-13.6,18.6-22.3l-0.3-70.5c2.7,0.8,31.6,10,31.6,28.8
		c0,11.7-3.6,19.2-7.6,23.9c-0.8,0.9,0.5,2.5,1.6,1.6c6.4-5,13-14.1,13-30.1C421.6,239.6,392.3,220.5,384.3,209.1z"/>
	<path class="st0" d="M573.7,314.1c0-4.2-0.2-51.3-0.2-52.2c0-0.9-0.9-1.4-1.8-1.4c-0.9,0-1.8,0.5-1.8,1.5l0.3,46.2l0.1,0.1
		c-3.1-2.1-7.9-2.5-12.6-0.7c-6.7,2.5-10.7,8.5-8.8,13.4c1.8,4.9,8.8,6.7,15.5,4.2c5.6-2.1,9.2-6.6,9.3-10.8c0,0,0,0,0,0
		C573.7,314.3,573.7,314.2,573.7,314.1z"/>
	<path class="st0" d="M461.9,253.9c10.2-3.9,16.3-13,13.5-20.4c-2.8-7.4-13.4-10.3-23.6-6.4c-8.6,3.2-14.2,10.1-14.2,16.7l-0.5,92.7
		c0,1.4,1.5,2.1,3,2.1c1.5,0,2.9-0.7,3.4-1.5c6.1-8.8,28.4-23.3,28.4-44.9c0-12.2-5.1-19.2-9.9-23c-0.8-0.7-1.8,0.5-1.2,1.2
		c3,3.6,5.8,9.4,5.8,18.3c0,14.4-22,21.4-24.1,22l0.2-57.7C447.5,256,454.8,256.6,461.9,253.9z"/>
	<path class="st0" d="M839.3,355.4c0-0.6-0.5-0.7-1-0.6c-0.5,0.1-21.6,4.5-21.9,4.6c-0.5,0.1-21.6,4.5-21.9,4.6
		c-0.3,0.1-0.6,0.2-0.6,0.6l0.1,19.3c-1.4-0.9-3.5-1.2-5.6-0.5c-3.1,1-5.1,3.6-4.4,5.9c0.7,2.3,3.8,3.3,7,2.3
		c2.7-0.8,4.5-2.9,4.5-4.9l0,0l-0.1-19.1c0-0.2,0.1-0.5,0.4-0.5c0.3-0.1,19.3-4,19.5-4.1c0.2,0,0.6,0.1,0.6,0.5l0.1,15.8
		c-1.4-0.9-3.5-1.2-5.6-0.5c-3.1,1-5.1,3.6-4.4,5.9c0.7,2.3,3.8,3.3,7,2.3c2.8-0.9,4.6-3,4.5-5.1l-0.1-18.9c0-0.2,0.1-0.5,0.5-0.5
		c0.3-0.1,19.1-4,19.3-4c0.2-0.1,0.6,0.1,0.6,0.5l0.1,15.9c-1.4-0.9-3.5-1.2-5.6-0.5c-3.1,1-5.1,3.6-4.4,5.9c0.7,2.3,3.8,3.3,7,2.3
		c2.7-0.9,4.5-3,4.5-5L839.3,355.4z"/>
	<path class="st0" d="M707.4,338.8c-2.7-4.6-7.5-8.4-8.1-8.9c-0.4-0.3-1.1,0.3-0.7,0.7c0.8,0.8,2.4,2.9,2.4,5.8
		c0,2.5-3.7,7.1-4.7,8.9c-0.2,0.4-0.2,0.7,0,1c0.2,0.2,5.6,5.7,7.2,7.2c0.2,0.2,0.2,0.3,0,0.2c-1.4-0.4-4.6-0.3-5.2,2.4
		c-0.6,2.9,3.3,5.4,5.4,6.7c0.4,0.2,0.5-0.2,0.3-0.5c-1.1-1.2-2.4-3.4-1.9-5.1c0.6-1.9,3.4-2,4.4-2.3c0.4-0.1,0.4-0.3,0-0.7
		c-1.4-1.4-4.8-5.1-4.8-8.2C701.6,342.2,707.4,338.8,707.4,338.8z"/>
	<path class="st0" d="M600.1,352.3c-0.1,0.3,0.2,0.6,1.2,0.8c1,0.2,1.4-0.1,1.4-0.3c0,0,5.8-26.8,5.9-27.1c0.1-0.4-0.9-0.6-1.4-0.6
		c-0.5,0.1-1,0.4-1.3,0.8c0,0-2.7,3.4-7.3,4.9c0.5-2.3-0.8-4.9-3.7-6c-3-1.1-6.1-0.1-7.2,2.4c-1,2.5,0.6,5.5,3.5,6.7
		c2.9,1.2,8.4,0.5,13.9-4.8L600.1,352.3z"/>
	<g>
		<path class="st0" d="M850,365.8c-120-8.9-233.9-68.4-351.3-123.5c-113.7-53.4-234.9-98.3-352.4-90c0,0,0.1,8.2,0.1,188.5
			c0.9-0.4,149.8-20.3,352.3,13.2c117.1,19.4,230.7,45.4,351.3,57.8C850,411.7,850,365.9,850,365.8z M498.8,244.1
			C616,298.6,729.4,357.5,849.3,366.5c0,3.5,0,7,0,10.6c-119.6-9.8-233.3-61-350.8-107.4c-114-45-234.5-80.1-350.8-71.1
			c0-14.4,0-28.8,0-43.2C264.9,147.1,385.2,191.3,498.8,244.1z M498.4,297.1c-114.4-36.6-234.8-62.1-350.7-52.2
			c0-14.4,0-28.8,0-43.2c116.3-9.1,236.8,25.4,350.8,69.8c117.5,45.8,231.2,96.5,350.8,106.3c0,3.5,0,7,0,10.6
			C729.7,377.7,615.9,334.7,498.4,297.1z M849.3,389.1c0,3.5,0,7,0,10.6c-119.9-11.5-233.4-46.2-350.8-75.1
			c-114.8-28.2-234.9-44.3-350.8-33.4c0-14.4,0-28.8,0-43.2c115.9-10,236.3,14.9,350.7,51C615.9,336,729.7,378.4,849.3,389.1z
			 M498.8,352.2c-115.1-19.6-234.6-26.5-351.1-14.7c0-14.4,0-28.8,0-43.2c116-10.9,236,4.6,350.8,32.2
			c117.3,28.3,230.9,62.4,350.8,74c0,3.5,0,7,0,10.6C728.9,398.6,615.7,372.1,498.8,352.2z"/>
	</g>
</g>
<path class="st1" d="M-133.2,637.6"/>
<path class="st2" d="M857.6,578c-7.1,3.7-14.6,6.8-21.9,10c-27.2,11.5-54.8,23.1-84,27c-54.9,7.3-111.5-12.7-165.4-0.2
	c-45.2,10.4-82.5,42.3-126.6,56.6c-20.5,6.6-41.8,9.2-63.4,9.2h-2.8c-2.7,0-5.3-0.1-7.9-0.2c-21.8-0.8-43.8-4-65.1-8.2
	c-67.6-13-136.3-36.8-188-80.7C282.8,563.9,592.7,521.8,857.6,578z"/>
<rect x="446" y="402" class="st3" width="98" height="12"/>
<rect x="446" y="420" class="st3" width="98" height="12"/>
<rect x="446" y="438" class="st3" width="98" height="12"/>
<rect x="324" y="272" class="st3" width="27" height="35"/>
<rect x="383" y="272" class="st3" width="27" height="35"/>
<rect x="324" y="328" class="st3" width="27" height="35"/>
<rect x="383" y="328" class="st3" width="27" height="35"/>
<rect x="324" y="384" class="st3" width="27" height="35"/>
<rect x="383" y="384" class="st3" width="27" height="35"/>
<rect x="324" y="440" class="st3" width="27" height="35"/>
<rect x="383" y="440" class="st3" width="27" height="35"/>
<path class="st4" d="M510.7,168.7h-6.9c2.7,0.1,4.9-1.9,5-4.6c0.1-2.7-1.9-4.9-4.6-5c-0.1,0-0.3,0-0.4,0h-55.7
	c-2.7,0.1-4.7,2.4-4.6,5c0.1,2.5,2.1,4.5,4.6,4.6h6.9c-2.7-0.1-4.9,1.9-5,4.6c-0.1,2.7,1.9,4.9,4.6,5c0.1,0,0.3,0,0.4,0h-9.6
	c-2.7-0.1-4.9,1.9-5,4.6c-0.1,2.7,1.9,4.9,4.6,5c0.1,0,0.3,0,0.4,0H501c2.7,0.1,4.9-1.9,5-4.6c0.1-2.7-1.9-4.9-4.6-5
	c-0.1,0-0.3,0-0.4,0h9.6c2.7,0.1,4.9-1.9,5-4.6c0.1-2.7-1.9-4.9-4.6-5C511,168.7,510.8,168.7,510.7,168.7z"/>
<path class="st5" d="M548.2,566.7h0.2c0,0-35.1-96.4-44.9-109.5c0,0-10.3-6.1-9.8-16.4L481,379.5c0,0,0.2-0.2,0.5-0.5l0.3-0.3
	l0.3-0.4c1.7-2,3.1-4.2,4.2-6.6l0.2-0.5c0.5-1.1,0.9-2.2,1.2-3.3c0.9,0.3,1.8,0.3,2.7-0.1c0,0,0-0.3,0-0.9l0,0c0,0-0.1-3.6-0.1-9.3
	c0-1.6,0-3.3,0-5.1c0.4-1.4,0.7-2.9,1-4.5l-0.5-0.2v-0.2l-0.4-0.2c0.3-13.5,1.5-30.6,4.8-42.4c0.1-0.4,0.2-0.8,0.4-1.2
	c3.9-12.8,4-28.4,5-41.6c0.8,1.7,1.4,3.4,2,5.1c0.5-0.6,1.1-1,1.7-1.4l3.9,31.4v37c0,0-6.5,47.7,14,38.8s5.6-41.6,5.6-41.6
	s0-18.2,2.8-27.6c1.8-6.2,0.7-26.1-0.4-39c2,0.4,3.2,0.6,3.2,0.6c0.5-1.9,0.7-3.8,0.6-5.7c0.4-21.6-26.2-56.3-37-69.6
	c-3.1-4.7-7.4-8.5-12.5-11L463.6,169c0,0-9.8-2.4-13.7-10c0-0.1-0.1-0.3-0.1-0.4c0.4-0.2,0.9-0.4,1.3-0.6c3.2-1.5,6-3.8,8.1-6.5
	c4.4-5.6,6.5-12.7,8.6-19.6c2.4-8.1,4.8-16.3,4.5-24.8s-3.9-17.2-11-21.6c-6.1-3.8-14.6-4.5-18.4-10.7c-1-1.6-1.6-3.6-3-4.9
	c0-0.6-0.4-1.1-0.9-1.2l-10.5-2.1c-0.6-0.1-1.2,0.3-1.3,0.9c0,0,0,0,0,0v0.1c-9.4,0.3-18.6,2.6-26.9,6.8c-3,1.4-5.8,3.1-8.5,5
	c-3.9,2.7-7.6,6.3-8.2,11c-0.3,2.3,0.3,4.7-0.2,7c-1.3,6.1-9.5,10.1-8.3,16.2c0.8,4.2,5.5,5.9,9.9,6c-4.9,17.7,5.4,36,23,40.9
	c0.7,0.2,1.5,0.4,2.2,0.5c3.2,4.5,6,9.3,8.4,14.3c-5.4,5.1-16.7,17-9.8,21l-14.4,35.6l1.4,36.7l-6.1,5.4l1.3,1.7
	c-6.8,7.9-22.5,25.2-34,29.8c-1.7,0.7-3.3,1.5-4.8,2.4c-2.1,1.3-4.4,2.3-6.9,2.7c-1.1,0.1-2.1,0.3-3.2,0.6l-2.8-5.7
	c-1-2-3.4-2.9-5.5-1.9c0,0,0,0,0,0l-1.7,0.8l0,0l-4,1.9l-1.7,0.8l0,0l-1.3,0.6c-2,1-2.9,3.4-1.9,5.5l3.3,6.9
	c-4.7,4.2-7,9.1-0.6,13.8c2.5,1.8,5.5,2.8,8.5,2.7l2,4.2c1,2,3.4,2.9,5.5,1.9c0,0,0,0,0,0l2.9-1.4l5.7-2.7c2-1,2.9-3.4,1.9-5.5
	c0,0,0,0,0,0l-1.7-3.5c3.7-2.9,7.1-6.2,10.2-9.8c0,0,8.5-5.4,13.6-6.5c3.3-0.8,15-8.5,22.2-13.3l2.1,54c-0.5,0.7-1,1.4-1.6,1.9
	l1.6-1.1v0.4c-0.2,0.3-0.4,0.5-0.7,0.7l0.7-0.5v0.6c-0.2,0.3-0.5,0.5-0.7,0.8l0.7-0.5l0.3,5.7l3.5-5.8l0.2,5.8l0.8-1.4
	c-9.9,16.8-22.8,41.5-29.6,66.4c0,0-10.8,18.7-9.4,37.9l-19.6,95l0.4,0.1c-6.4,4.6-19.9,13.1-33.1,13.4c0,0-31.8-0.9-22.9,6.1
	s88,17.3,88,17.3l3-23.7l0.7,0.3c0,0,0-0.1,0-0.4l1,0.4c0,0-1.9-11.8,5.1-18.3s23.4-73,22-83.3c0,0,12.6-31.4,28.3-56.4l18.5,47.5
	l20.6,35.5c0,0,27.4,60.9,26.5,74.4c-5.8,7-16,18-23.7,17.7c0,0-31.3,6.1-9.8,11.7s84.7-15.4,84.7-15.4L548.2,566.7z M411.2,349
	l0.2-0.1c-1,1.5-2,3.2-3.1,5L411.2,349z"/>
<linearGradient id="SVGID_1_" gradientUnits="userSpaceOnUse" x1="518.88" y1="215.625" x2="520.07" y2="215.625" gradientTransform="matrix(1 0 0 -1 -122.5 572.25)">
	<stop  offset="0" style="stop-color:#808080;stop-opacity:0.25"/>
	<stop  offset="0.54" style="stop-color:#808080;stop-opacity:0.12"/>
	<stop  offset="1" style="stop-color:#808080;stop-opacity:0.1"/>
</linearGradient>
<path class="st6" d="M397.6,356.2c-0.8,0.6-1.2,0.9-1.2,0.9C396.8,356.8,397.2,356.5,397.6,356.2z"/>
<linearGradient id="SVGID_00000009584941385257312540000005105447542386297766_" gradientUnits="userSpaceOnUse" x1="519.81" y1="214.685" x2="521.01" y2="214.685" gradientTransform="matrix(1 0 0 -1 -122.5 572.25)">
	<stop  offset="0" style="stop-color:#808080;stop-opacity:0.25"/>
	<stop  offset="0.54" style="stop-color:#808080;stop-opacity:0.12"/>
	<stop  offset="1" style="stop-color:#808080;stop-opacity:0.1"/>
</linearGradient>
<path style="fill:url(#SVGID_00000009584941385257312540000005105447542386297766_);" d="M398.5,357.1c-0.8,0.6-1.2,0.9-1.2,0.9
	C397.7,357.8,398.1,357.5,398.5,357.1z"/>
<linearGradient id="SVGID_00000052787400585262642570000001682872313301473456_" gradientUnits="userSpaceOnUse" x1="519.81" y1="215.625" x2="521.01" y2="215.625" gradientTransform="matrix(1 0 0 -1 -122.5 572.25)">
	<stop  offset="0" style="stop-color:#808080;stop-opacity:0.25"/>
	<stop  offset="0.54" style="stop-color:#808080;stop-opacity:0.12"/>
	<stop  offset="1" style="stop-color:#808080;stop-opacity:0.1"/>
</linearGradient>
<path style="fill:url(#SVGID_00000052787400585262642570000001682872313301473456_);" d="M398.5,356.2c-0.8,0.6-1.2,0.9-1.2,0.9
	C397.7,356.8,398.1,356.5,398.5,356.2z"/>
<path class="st9" d="M505.5,561.8c0,0-16.4,23.3-27.4,22.8c0,0-30.6,5.9-9.6,11.4s82.5-15,82.5-15l-7.3-23.8L505.5,561.8z"/>
<path class="st10" d="M432.1,400.2l23.3,59.8l20.1,34.7c0,0,27.6,61.3,25.8,73.2l44-7.1c0,0-34.2-94-43.8-106.7c0,0-10-5.9-9.6-16
	l-12.3-59.8c0,0,12-11.6,5.3-26c-0.3-0.7-0.7-1.5-1.2-2.2c-9.2-15.5-43.8-6.9-43.8-6.9L432.1,400.2z"/>
<path class="st11" d="M432.1,400.2l23.3,59.8l20.1,34.7c0,0,27.6,61.3,25.8,73.2l44-7.1c0,0-34.2-94-43.8-106.7c0,0-10-5.9-9.6-16
	l-12.3-59.8c0,0,12-11.6,5.3-26c-0.3-0.7-0.7-1.5-1.2-2.2c-9.2-15.5-43.8-6.9-43.8-6.9L432.1,400.2z"/>
<g class="st12">
	<path d="M501.5,454.1c0,0-10-5.9-9.6-16l-12.3-59.8c0,0,12-11.6,5.3-26c-0.3-0.7-0.7-1.5-1.2-2.2c-4.4-7.5-14.9-9.4-24.4-9.2
		c9.2,0.1,18.8,2.1,23.1,9.2c0.4,0.8,0.8,1.5,1.2,2.2c6.7,14.5-5.3,26-5.3,26l12.3,59.8c-0.5,10,9.6,16,9.6,16
		c9.6,12.8,43.8,106.7,43.8,106.7l-42.6,6.8c0,0.1,0,0.2,0,0.2l44-7.1C545.2,560.9,511,466.9,501.5,454.1z"/>
</g>
<path class="st9" d="M351.4,551.7c0,0-18.2,15.5-36,16c0,0-31-0.9-22.4,5.9s85.7,16.9,85.7,16.9l3.4-26.7L351.4,551.7z"/>
<g class="st12">
	<path d="M418.4,339.6c0,0-30.1,42.4-42,85.3c0,0-10.5,18.2-9.1,36.9l-19.1,92.6l35.1,13.2c0,0-1.8-11.4,5-17.8s22.8-71.2,21.4-81.2
		c0,0,21.9-54.7,43.8-76.2s32.8-26.4,36-44.9C489.6,347.7,438,322.8,418.4,339.6z"/>
</g>
<path class="st10" d="M417.5,339.6c0,0-30.1,42.4-42,85.3c0,0-10.5,18.2-9.1,36.9l-19.2,92.6l35.1,13.2c0,0-1.8-11.4,5-17.8
	c6.8-6.4,22.8-71.2,21.4-81.2c0,0,21.9-54.7,43.8-76.2s32.8-26.4,36-44.9C488.7,347.7,437.1,322.8,417.5,339.6z"/>
<g class="st12">
	<path d="M437,333.3c22.6,0.3,50.8,13.9,50.8,13.9c-3.2,18.5-14.1,23.5-36,44.9S408,468.2,408,468.2c1.4,10-14.6,74.8-21.4,81.2
		c-6,5.6-5.3,14.9-5.1,17.2l1.4,0.5c0,0-1.8-11.4,5-17.8c6.8-6.4,22.8-71.2,21.5-81.2c0,0,21.9-54.7,43.8-76.2s32.8-26.4,36-44.9
		C489.1,347.2,459.8,333,437,333.3z"/>
</g>
<path class="st13" d="M395.2,273.5c0,0-21.8,27.1-36.5,33c-1.6,0.6-3.2,1.4-4.7,2.3c-2.1,1.3-4.3,2.2-6.7,2.6
	c-1.8,0.2-3.5,0.6-5.1,1.3c-7.6,3.5-25.3,13-13.6,21.4c14.6,10.5,34.2-13.7,34.2-13.7s8.3-5.2,13.2-6.4s27.4-16.9,27.4-16.9
	L395.2,273.5z"/>
<polygon class="st14" points="399.3,268 390.6,275.8 403.4,291.8 "/>
<g class="st12">
	<polygon points="399.3,268 390.6,275.8 403.4,291.8 	"/>
</g>
<path class="st15" d="M421.2,177.2c0,0-20.8,17.8-12.1,22.8l-14,34.7l4.8,126.8l19.8-32.8l-13.5-71.1c0,0-3.9-42.4,7.2-52.5l10.6-21
	L421.2,177.2z"/>
<g class="st12">
	<path d="M424.9,177.2c0,0-20.8,17.8-12.1,22.8l-14,34.7l4.8,126.8l19.8-32.8l-13.5-71.1c0,0-3.9-42.4,7.2-52.5l10.6-21L424.9,177.2
		z"/>
</g>
<path class="st13" d="M405.2,158.6c0,0,16.9,20.5,16.4,32.4s31.9-20.5,31.9-20.5s-12.3-15-9.1-31S405.2,158.6,405.2,158.6z"/>
<path class="st13" d="M501.5,261.6l4.6,36.5v36c0,0-6.4,46.5,13.7,37.9s5.5-40.6,5.5-40.6s0-17.8,2.7-26.9s-1.4-49.2-1.4-49.2
	L501.5,261.6z"/>
<path class="st16" d="M439,175.5c0,0-12.3,11.9-18.7,7.8l-8.8,21.8c-5.4,13.3-7.8,27.6-7.1,41.9l3.1,82.2l13.7-1.8l4.6-78l6.8-47.4
	L439,175.5z"/>
<g class="st12">
	<path d="M449.2,162.9c0,0-16.2,11.2-20.7,20.8c0,0-0.5,10.5-4.1,15s-7.3,27.4-8.2,54.7s-5,63.9-5,63.9s-6.8,35.6-14.1,39.2
		c0,0,33.8-25.5,50.2-16.9s35.1,29.6,40.6,26.5c0,0-1.3-40,4.7-61.3c0.1-0.4,0.2-0.8,0.3-1.2c6.4-21,2.3-49.7,9.6-62
		c0,0,0-22.3-4.2-38.9c-2.2-8.6-8.1-15.8-16.1-19.6l-20.3-9.8C461.8,173.2,451,171.6,449.2,162.9z"/>
</g>
<g class="st12">
	<path d="M449.2,162.9c0,0-15.3,12.1-19.8,21.7c0,0-0.5,10.5-4.1,15s-7.3,27.4-8.2,54.7s-5,63.9-5,63.9s-6.8,35.6-14.1,39.2
		c0,0,33.8-25.5,50.2-16.9s35.1,29.6,40.6,26.5c0,0-1.3-40,4.7-61.3c0.1-0.4,0.2-0.8,0.3-1.2c6.4-21,2.3-49.7,9.6-62
		c0,0,0-22.3-4.2-38.9c-2.2-8.6-8.1-15.8-16.1-19.6l-20.3-9.8C462.7,174.1,451,171.6,449.2,162.9z"/>
</g>
<path class="st15" d="M449,162.7c0,0-15,11.4-19.6,21c0,0-0.5,10.5-4.1,15s-7.3,27.4-8.2,54.7s-5,63.9-5,63.9s-6.8,35.6-14.1,39.2
	c0,0,33.8-25.5,50.2-16.9s35.1,29.6,40.6,26.4c0,0-1.3-40,4.7-61.3c0.1-0.4,0.2-0.8,0.3-1.2c6.4-21,2.3-49.7,9.6-62
	c0,0,0-22.3-4.2-38.9c-2.2-8.6-8.1-15.8-16.1-19.6l-20.3-9.8C462.7,173.2,452.4,170.7,449,162.7z"/>
<g class="st12">
	<path d="M490.7,189.4c0,0,46.3,52.7,39.9,77.8c0,0-23.7-5.5-30.1,1.8c0,0-5-16.9-20.1-26.5S451.5,171.6,490.7,189.4z"/>
</g>
<path class="st15" d="M490.7,188.5c0,0,46.3,52.7,39.9,77.8c0,0-23.7-5.5-30.1,1.8c0,0-5-16.9-20.1-26.5S451.5,170.7,490.7,188.5z"
	/>
<g class="st12">
	<path d="M445.6,149.7c-0.7-3.7-0.1-4,0.7-8c3.2-16-39.2,19.2-39.2,19.2s2.4,2.9,5.3,7.1c2.2,0.4,4.4,0.7,6.6,0.7
		C430.5,168.6,439.8,158.8,445.6,149.7z"/>
</g>
<circle class="st13" cx="417.1" cy="133.9" r="32.4"/>
<g class="st12">
	<path d="M388,125.1c-4.8,0.6-10.9-1-11.8-5.7c-1.2-6,6.8-9.9,8.1-15.8c0.5-2.2-0.1-4.6,0.2-6.8c0.5-4.6,4.2-8.1,8-10.7
		c11.9-8.3,26.4-12.2,40.8-10.9c1.8,0,3.6,0.6,5.1,1.6c1.6,1.3,2.2,3.4,3.2,5.1c3.7,6,12,6.7,17.9,10.4c7,4.4,10.4,12.9,10.7,21.1
		s-2,16.2-4.3,24.1c-2,6.7-4,13.6-8.4,19.1s-11.5,9.3-18.3,7.7c3.1-2.2,0.8-7.4-2.5-9.3s-7.5-2.1-10.4-4.7s-3.7-6.6-4.7-10.4
		c-1.2-4.7-2.9-9.5-6.3-13C408.5,120.1,396.3,124,388,125.1z"/>
</g>
<path class="st17" d="M388.9,124.6c-4.8,0.6-10.9-1-11.8-5.7c-1.2-6,6.8-9.9,8.1-15.8c0.5-2.2-0.1-4.6,0.2-6.8
	c0.5-4.6,4.2-8.1,8-10.7c11.9-8.3,26.4-12.2,40.8-10.9c1.8,0,3.6,0.6,5.1,1.6c1.6,1.3,2.2,3.4,3.2,5.1c3.7,6,12,6.7,17.9,10.4
	c7,4.4,10.4,12.9,10.7,21.1s-2,16.2-4.3,24.1c-2,6.7-4,13.6-8.4,19.1s-11.5,9.3-18.3,7.7c3.1-2.2,0.8-7.4-2.5-9.3s-7.5-2.1-10.4-4.7
	s-3.7-6.6-4.7-10.4c-1.2-4.7-2.9-9.5-6.3-13C409.4,119.7,397.2,123.5,388.9,124.6z"/>
<path class="st18" d="M436.6,91.8l2.9-15c0.1-0.6-0.3-1.2-0.9-1.3c0,0,0,0,0,0l-10.3-2c-0.6-0.1-1.2,0.3-1.3,0.9c0,0,0,0,0,0
	l-2.9,15l-10,37.1l18.3,3.6L436.6,91.8z"/>
<g class="st12">
	<circle cx="421.4" cy="134.6" r="16"/>
</g>
<circle class="st18" cx="421.4" cy="135.1" r="16"/>
<circle class="st19" cx="421.4" cy="135.1" r="10.5"/>
<circle class="st20" cx="421.4" cy="135.1" r="3.2"/>
<rect x="430.3" y="83" transform="matrix(0.1917 -0.9815 0.9815 0.1917 260.2958 494.8665)" class="st21" width="0.5" height="12.8"/>
<path class="st18" d="M331.2,307.1L331.2,307.1c3.9-1.9,8.5-0.2,10.4,3.6l9.7,20.1c1.9,3.9,0.2,8.5-3.6,10.3l0,0
	c-3.9,1.9-8.5,0.2-10.3-3.6l-9.7-20.1C325.7,313.6,327.3,308.9,331.2,307.1z"/>
<g class="st12">
	<path d="M331.2,307.1L331.2,307.1c3.9-1.9,8.5-0.2,10.4,3.6l9.7,20.1c1.9,3.9,0.2,8.5-3.6,10.3l0,0c-3.9,1.9-8.5,0.2-10.3-3.6
		l-9.7-20.1C325.7,313.6,327.3,308.9,331.2,307.1z"/>
</g>
<path class="st18" d="M332.6,306.4L332.6,306.4c4-1.9,8.7-0.2,10.7,3.7l9.5,19.7c1.9,4,0.2,8.7-3.7,10.7h0c-4,1.9-8.7,0.2-10.7-3.7
	l-9.5-19.7C327,313.1,328.6,308.3,332.6,306.4z"/>
<rect x="334" y="307.4" transform="matrix(0.9008 -0.4343 0.4343 0.9008 -106.0082 179.5973)" class="st16" width="12.1" height="28.7"/>
<ellipse transform="matrix(0.9008 -0.4343 0.4343 0.9008 -112.058 184.5607)" class="st16" cx="347.9" cy="337.5" rx="1.4" ry="1.8"/>
</svg>
