<?xml version="1.0" encoding="utf-8"?>
<!-- Generator: Adobe Illustrator 25.3.1, SVG Export Plug-In . SVG Version: 6.00 Build 0)  -->
<svg version="1.1" xmlns="http://www.w3.org/2000/svg" xmlns:xlink="http://www.w3.org/1999/xlink" x="0px" y="0px"
	 viewBox="0 0 1920 1080" style="enable-background:new 0 0 2500 1700.68;" xml:space="preserve">
<style type="text/css">
	.st0{opacity:0.53;}
	.st1{fill:#E9D0C1;}
	.st2{display:none;}
	.st3{display:inline;}
	.st4{fill:#E0564C;}
	.st5{fill:#FDA62A;}
	.st6{fill:#BD2D0A;}
	.st7{fill:#1B4364;}
	.st8{fill:#05284F;}
	.st9{fill-rule:evenodd;clip-rule:evenodd;fill:#00083A;}
	.st10{display:inline;fill:#05284F;}
	.st11{display:inline;fill:#00083A;}
	.st12{font-family:'Montserrat-SemiBold';}
	.st13{font-size:49px;}
	.st14{font-family:'CouncilOT-Regular';}
	.st15{font-size:192.0678px;}
	.st16{letter-spacing:19;}
</style>
<g id="Sun">
	<g id="MusicalNotes">
		<g class="st0">
			<path class="st1" d="M958.4,526.1c-0.3,1.6,1.5,2.9,3.9,2.8l0.3,0c2.4-0.1,4.6-1.5,4.9-3.1l6-37.2l5.1-31.6l-31.7,1.1l3.5-22
				c0.3-1.6-1.5-2.9-3.9-2.8l-0.3,0c-2.4,0.1-4.6,1.5-4.9,3.1l-3.5,22l-7,43.8l31.7-1.1L958.4,526.1z M941.8,489.7l3.3-20.5
				l22.6-0.8l-3.3,20.5L941.8,489.7z"/>
			<path class="st1" d="M1464.7,688.9c-1.7-0.6-116.6-35.8-119.4-36.7c-2.8-0.9-5.8-0.7-6.2,1.4l-12,70.1c-7.1-4.7-18.7-7.6-30.9-7
				c-18.1,0.9-30.6,9-27.9,18.2c2.6,9.1,19.4,15.8,37.5,14.9c15.5-0.8,27-6.9,28.2-14.4l9-52.7c0.3-1.7,2.2-1.8,3.5-1.4
				c1.3,0.4,104.5,32.1,106.1,32.6c1.6,0.5,2.3,1.7,2.2,2.4l-7.4,43.6c-7.1-4.7-18.7-7.6-30.9-7c-18.1,0.9-30.6,9-27.9,18.2
				c2.6,9.1,19.4,15.8,37.5,14.9c15.8-0.8,27.4-7.1,28.2-14.8l13.6-79.2C1468,690.2,1466.4,689.5,1464.7,688.9z M1344.4,674l0.9-5.4
				c0.3-1.8,2.2-1.8,3.5-1.4c1.3,0.4,104.6,32.1,106.2,32.6c1.6,0.5,2.2,1.7,2.1,2.3l-1.1,6.2C1435.4,701.9,1359.4,678.6,1344.4,674
				z"/>
			<path class="st1" d="M441.3,340.4c-13.2-11.6-31.4-10.4-46.3-1.4c0,0,10.6-66,10.8-67.1c0.2-1.1-1.4-3.1-6.7-4
				c-5.3-0.8-7.1,0.7-7.2,1.8l-20.3,126.5C382.6,389.7,472.2,367.7,441.3,340.4z M392.9,352.2c9.4-8.1,23.6-9.8,33.3-1.6
				c16.8,14.1-35.7,31-38.2,32.1L392.9,352.2z"/>
			<path class="st1" d="M1774.7,754.1c1.7-10.8-19.1-21.7-25.4-27.4c-0.7-0.7-1.9-1.3-3.8-1.6c-2-0.3-3.3-0.1-3.5,0.9l-7.4,49.3
				l0.1,0.2c-4.5-3-12.1-4.7-19.9-4c-11.1,1-18.4,6.4-16.3,12c2.1,5.6,12.7,9.4,23.8,8.4c9.2-0.8,15.8-4.6,16.6-9.1
				c0-0.1,0-0.2,0.1-0.3l3.4-22.4c2.6,0.8,24.3,8,23.1,15.3c-0.7,4.6-4.1,7-7.5,8.4c-0.7,0.3,0.3,1,1.2,0.8
				c5.4-1.1,11.2-3.8,12.2-10.1c0.6-3.9-1.6-7.7-5.1-11.4C1770.3,761.6,1773.9,758.9,1774.7,754.1z M1764.7,761.5
				c-7.3-6.9-18.1-12.8-20.1-15.9l0.9-5.9c1.8,0.6,24.5,7.9,23.3,15.3C1768.3,758,1766.7,760.1,1764.7,761.5z"/>
			<path class="st1" d="M229.2,311.4c-8.5-2.5-16.8-4.2-24.8-5.1c0.7-14.6,2.8-30,3.3-44.4c51.2-28.7,98.8-62.4,99.3-103.7
				c0.6-44.1-28.3-64.5-65.8-68c-37.5-3.5-51.7,21.4-52.8,47.9c-1.3,31.3-2.4,64.9-3.8,98.6c-33.4,16.5-77.7,34.9-98.5,46.7
				c-80,45.3-67.2,101.8-53.2,123.3c24,37,83.1,60.8,130.5,68.1c0,0-5,47.5-38.1,49.9c-7.8,0.6-17.2-1.3-25.9-3.8
				c13.6-6.9,8.5-23.5-9.5-35.5c-17.1-11.4-39.4-14.5-49.9-7c-12.4,8.9-2.3,27.6,19,38.3c13.6,7.6,41.2,20.4,69,19.3
				c47.4-1.8,56.9-59.2,56.9-59.2c55.6,0.6,103.1-21.2,116.7-67.9C312.7,370.7,285,327.4,229.2,311.4z M168.6,442.6
				c-35.8-4.6-72.1-25-86.4-47c-41-63.1,75.4-106.3,101.7-120.2c-0.4,8.7-1.3,20.3-1.8,28.8c-38.8,4-62.6,22.9-77.1,49.6
				c-1.6,2.9,0.1,6.2,4.2,7.1c4.1,0.9,6.5,0.1,8.9-3.9c10.7-18.2,29.9-32.5,63.1-32.7C178.4,368.3,174.1,411.4,168.6,442.6z
				 M209.1,148.3c1-27.2,12.7-37.3,27-36c15,1.4,30.3,16.3,30.5,42c0.2,26.6-25.9,49.5-59.2,69.3C208,195.8,208.5,170,209.1,148.3z
				 M265.6,401.2c-9.9,30-41.3,42.5-75.8,42.4c6.9-33.9,11-75.7,13.6-118.7c5.3,0.8,10.6,2.1,15.7,3.7
				C254,339.7,274.5,374.3,265.6,401.2z"/>
			<path class="st1" d="M1659.2,835.9c0,0-3.6-0.6-9.1-1.4c0.4-0.8,0.8-1.6,0.9-2.4l0,0c0-0.1,0-0.2,0.1-0.4
				c0.8-5.4,10.3-66.1,10.5-67.2c0.2-1.2-1.4-2.1-3.1-2.3c-1.7-0.3-3.5,0.2-3.7,1.3l-9,59.6l0.1,0.2c-5.5-3.6-14.6-5.6-24-4.8
				c-9.4,0.8-16.5,4.3-19.1,8.6c-6.3-1-10.6-1.7-10.8-1.7c-1.1-0.2-1.8,0.4-1.9,1.1c-0.1,0.7,0.4,1.5,1.5,1.7c0,0,4.1,0.6,10.2,1.6
				c-0.1,1.1,0,2.1,0.4,3.2c2.5,6.8,15.4,11.4,28.8,10.2c7.5-0.7,13.6-3,17-6.1c6.3,1,10.6,1.7,10.9,1.7c1.1,0.2,1.8-0.4,1.9-1.1
				C1660.8,836.8,1660.3,836,1659.2,835.9z"/>
			<path class="st1" d="M1625.2,682.4c0.2-1.4-1.6-2.4-3.6-2.7c-1.9-0.3-4,0.2-4.3,1.6l-10.4,68.9l0.1,0.2
				c-6.3-4.2-16.9-6.5-27.8-5.5c-15.5,1.4-25.7,8.9-22.8,16.7c2.9,7.9,17.8,13.1,33.3,11.8c13.1-1.2,22.5-6.7,23.2-13.2
				C1614,753.8,1625,683.7,1625.2,682.4z M1585.6,768c-12.3-0.4-22.8-4.8-23.4-9.7c-0.6-4.9,9-8.6,21.4-8.2
				c12.3,0.4,22.8,4.8,23.4,9.7C1607.5,764.8,1597.9,768.5,1585.6,768z"/>
			<g>
				<path class="st1" d="M1074.6,546.8c1.3-8.6,16.6-106.1,16.8-107.9c0.3-1.9-2.3-3.3-5-3.8c-2.7-0.4-5.6,0.2-5.9,2.2l-14.4,95.6
					l0.2,0.3c-8.8-5.8-23.5-9-38.5-7.7c-21.5,1.9-35.6,12.3-31.6,23.2c4,10.9,24.7,18.3,46.2,16.4c17.8-1.6,30.6-9,32.1-17.7
					c0,0,0,0,0,0C1074.5,547.2,1074.6,547,1074.6,546.8z"/>
			</g>
			<path class="st1" d="M635.6,303.1c-1.7-2.3-7-5.1-12.7-6c-5.7-0.9-11.8-0.1-12.3,3.6L583.1,484l0.4,0.6
				c-16.9-11.1-45-17.3-73.9-14.7c-41.2,3.6-68.3,23.6-60.6,44.5c7.7,21,47.3,35,88.5,31.3c35-3.1,59.8-18,61.7-35.2L620.6,371
				c7.8,2.9,89.8,34.6,83.8,72c-3.7,23-16.8,36.2-30,43.7c-2.5,1.5,0.8,5.1,4.3,4c20.4-6.9,42.8-21.6,47.9-53.3
				C735.7,381.2,655.4,329.6,635.6,303.1z"/>
			<path class="st1" d="M1159.9,600.6c1.3-8.2,15.9-101.5,16.1-103.3c0.3-1.9-2.2-3.2-4.8-3.6c-2.6-0.4-5.4,0.2-5.7,2.1l-13.8,91.5
				l0.2,0.3c-8.4-5.6-22.5-8.6-36.9-7.4c-20.6,1.8-34.1,11.8-30.2,22.2c3.8,10.5,23.6,17.5,44.2,15.7c17-1.5,29.3-8.6,30.7-17
				c0,0,0,0,0,0C1159.9,600.9,1159.9,600.7,1159.9,600.6z"/>
			<path class="st1" d="M850,428.6c31.4-2.8,52.1-18,46.2-34c-5.9-16-36.1-26.7-67.5-23.9c-26.3,2.3-45,13.3-47,26.2l-30.9,183
				c-0.5,2.8,3.7,4.9,8.1,5.5c4.3,0.7,8.8-0.1,10.6-1.3c20.7-14.4,91.2-32.6,98-75.4c3.9-24.2-8.8-40.3-22-50.1
				c-2.3-1.7-5.6,0.2-4.1,1.8c7.7,8.6,14.1,21.3,11.3,38.8c-4.6,28.5-71.6,31.8-77.9,32.1l18.9-114C806.6,425.9,828,430.5,850,428.6
				z"/>
			<path class="st1" d="M1929.2,808c0.2-1.1-1.3-1.7-2.9-1.7c-1.6,0-65.1-1.4-66.1-1.4c-1.6,0-65.1-1.4-66.1-1.4c-1,0-1.9,0.1-2,1
				l-5.7,38.3c-3.7-2.5-9.9-4-16.3-3.7c-9.6,0.5-16.2,4.8-14.8,9.6c1.4,4.8,10.3,8.4,19.8,7.9c8.1-0.4,14.1-3.6,14.9-7.5l0,0.1
				l5.7-37.7c0-0.4,0.6-0.8,1.5-0.8c0.9,0,58,1.2,58.7,1.2c0.7,0,1.7,0.4,1.5,1.3l-4.7,31.3c-3.7-2.5-9.9-4-16.3-3.6
				c-9.6,0.5-16.2,4.8-14.8,9.6c1.4,4.8,10.3,8.4,19.8,7.9c8.4-0.4,14.5-3.8,14.9-7.9l5.6-37.5c0.1-0.4,0.4-0.9,1.6-0.8
				c0.9,0,57.5,1.2,58.2,1.2c0.7,0,1.7,0.4,1.5,1.3l-4.7,31.5c-3.7-2.5-9.9-4-16.3-3.6c-9.6,0.5-16.2,4.8-14.8,9.6
				c1.4,4.8,10.3,8.4,19.8,7.9c8.3-0.4,14.3-3.7,14.9-7.7L1929.2,808z"/>
			<path class="st1" d="M1545.9,712.6c-6.6-10.4-19.3-20.1-21.1-21.4c-1.1-0.8-3.2,0.1-2.2,1.1c2,1.9,6,6.8,5.1,12.7
				c-0.8,4.9-13,12.4-16.7,15.4c-0.8,0.6-0.9,1.3-0.3,2c0.6,0.6,14.6,14,18.9,17.6c0.6,0.5,0.5,0.7-0.2,0.4
				c-3.9-1.4-13.6-2.8-16.2,2.3c-2.8,5.4,7.9,12.3,13.6,15.8c1,0.6,1.7-0.1,1-0.9c-2.8-3-5.9-7.8-3.9-10.9
				c2.3-3.5,10.8-2.4,13.7-2.5c1.1,0,1.2-0.5,0.3-1.4c-3.7-3.4-12.6-12.4-11.6-18.5C1527.7,716.7,1545.9,712.6,1545.9,712.6z"/>
			<path class="st1" d="M1225.8,688.5c-0.3,0.5,0.3,1.2,3.2,2.1c2.9,0.9,4.1,0.5,4.3,0c0,0,25.6-50.3,25.9-50.8
				c0.4-0.8-2.4-1.7-4-1.8c-1.6-0.1-3,0.3-4.1,0.9c0,0-9,5.4-23,6.2c2.1-4.4-0.9-10.2-8.9-13.6c-8.4-3.6-18.1-3.1-21.8,1.3
				c-3.8,4.5-0.1,11.1,8.2,14.9c8.2,3.7,24.7,4.9,42.5-2.9L1225.8,688.5z"/>
			<path class="st1" d="M1957.5,833.6c-350.6-74.4-667.1-245.9-995.3-410.6C644.4,263.5,301.7,117.5-47,78.2
				c0,0-2.3,16.2-59.6,372.6c2.8-0.4,447.6,30.8,1033.3,193c338.6,93.8,664.9,198.9,1016.2,280.7
				C1942.9,924.3,1957.4,833.8,1957.5,833.6z M961.5,426.6c328.1,163.4,643.4,333.4,993.5,408c-1.1,7-2.2,13.9-3.4,20.9
				c-349.2-76-667.7-231.1-999.1-378.5C631.2,334,287.5,207.6-58,170.3c4.6-28.5,9.2-57,13.7-85.5
				C303.6,124.2,644,268.5,961.5,426.6z M943.6,531.2C618.3,404.6,271.7,297.1-72.8,261.8c4.6-28.5,9.2-57,13.7-85.5
				c345.4,37.2,689.4,162.3,1011,304.2c331.6,146.3,650.3,300.2,999.4,376.4c-1.1,7-2.2,13.9-3.4,20.9
				C1599.2,800.1,1277.8,661.3,943.6,531.2z M1947.8,879.3c-1.1,7-2.2,13.9-3.4,20.9c-349.4-79.6-672.9-202-1009.4-314.6
				C606,475.5,257.4,386.8-87.5,353.4c4.6-28.5,9.2-57,13.7-85.5C270.7,303.1,617.5,409.3,943,534.8
				C1277.4,663.7,1598.9,801.5,1947.8,879.3z M927.2,640.2C594.5,546.9,244.7,476.6-102.2,444.9c4.6-28.5,9.2-57,13.7-85.5
				c345,33.3,693.7,120.8,1023,229.7c336.6,111.4,660.2,232.7,1009.7,312.4c-1.1,7-2.2,13.9-3.4,20.9
				C1590.2,840.9,1265.3,735.1,927.2,640.2z"/>
		</g>
	</g>
	<g class="st2">
		<g class="st3">
			<path class="st4" d="M233.3,781.8c-0.2,1.3-102.6-1.6-102.7-0.3c-0.1,1.3,99.2,14.3,98.8,15.6c-0.4,1.3-98.6-16.7-98.8-15.4
				c-0.2,1.3,93.6,29.2,93.1,30.5c-0.5,1.2-92.7-31.5-93.1-30.3c-0.4,1.2,86.6,43.4,86,44.6c-0.7,1.2-85.5-45.4-86.1-44.3
				c-0.6,1.1,78.6,56.4,77.9,57.5c-0.7,1.1-77.5-58.1-78.2-57c-0.7,1,70,68,69.2,69c-0.8,1-68.8-69.3-69.7-68.3
				c-0.8,0.9,61.1,78,60.2,78.9c-0.9,0.9-60-79-60.9-78.2c-0.9,0.8,52.1,86.5,51.2,87.3c-0.9,0.8-51.1-87.2-52.1-86.5
				c-1,0.7,43.1,93.5,42.2,94.1c-0.9,0.6-42.3-94-43.4-93.4c-1.1,0.6,34.3,99,33.4,99.5c-0.9,0.5-33.5-99.3-34.7-98.9
				c-1.1,0.4,25.6,103,24.6,103.4c-0.9,0.3-24.9-103.2-26.1-102.9c-1.2,0.3,17,105.7,16,105.9c-0.9,0.2-16.4-105.7-17.6-105.6
				c-1.2,0.1,8.5,106.9,7.6,107c-0.9,0.1-8.1-106.9-9.3-106.9c-1.2,0,0.2,106.9-0.8,106.8c-1-0.1,0.2-106.8-1-106.9
				c-1.2-0.1-8.2,105.5-9.2,105.3c-1-0.2,8.7-105.3,7.5-105.6c-1.2-0.3-16.9,102.8-17.9,102.5c-1-0.4,17.5-102.5,16.3-102.9
				c-1.2-0.4-25.8,98.8-26.8,98.3c-1-0.5,26.5-98.3,25.4-98.9c-1.1-0.6-35,93.3-35.9,92.7c-1-0.6,35.8-92.7,34.7-93.4
				c-1.1-0.7-44.3,86.4-45.2,85.7c-1-0.8,45.2-85.6,44.2-86.4c-1-0.8-53.8,78.1-54.7,77.2c-0.9-0.9,54.8-77,53.9-77.9
				c-0.9-0.9-63.3,68.3-64.2,67.3c-0.9-1,64.5-66.9,63.7-68c-0.8-1.1-72.8,57.1-73.6,56c-0.8-1.1,73.9-55.3,73.3-56.5
				c-0.7-1.1-81.8,44.4-82.6,43.3c-0.8-1.2,82.9-42.4,82.4-43.6c-0.5-1.2-90.1,30.6-90.8,29.3c-0.6-1.2,91-28.2,90.7-29.5
				c-0.3-1.3-97.1,15.8-97.6,14.6c-0.5-1.3,97.7-13.4,97.6-14.7C110,780.2,7.8,782.3,7.5,781c-0.3-1.3,102.6,1.5,102.6,0.3
				c0-1.3-105.5-14.2-105.7-15.5c-0.2-1.3,105.5,16.6,105.7,15.3c0.2-1.3-106.4-29-106.4-30.2c0-1.2,106.1,31.3,106.4,30.1
				c0.4-1.2-104.9-43.1-104.7-44.3c0.3-1.2,104.3,45.1,104.8,44c0.5-1.1-101-56-100.5-57.1c0.5-1.1,100.1,57.7,100.8,56.6
				c0.7-1-94.8-67.6-94.2-68.6c0.7-1,93.8,68.9,94.6,67.9c0.8-0.9-86.7-77.6-85.9-78.5c0.9-0.9,85.7,78.6,86.6,77.7
				c0.9-0.8-77-86.1-75.9-86.8c1-0.8,75.9,86.8,76.9,86.1c1-0.7-65.8-93.1-64.6-93.7c1.2-0.6,64.6,93.6,65.7,93
				c1.1-0.6-53.4-98.7-52.1-99.2c1.3-0.5,52.3,99,53.4,98.6c1.2-0.4-40.1-102.8-38.7-103.1c1.4-0.4,39,103,40.2,102.7
				c1.2-0.3-26.2-105.5-24.7-105.7c1.5-0.2,25.1,105.6,26.4,105.5c1.2-0.1-12-106.9-10.5-107c1.5-0.1,11,106.9,12.3,106.9
				c1.3,0,2.2-106.9,3.7-106.9c1.5,0.1-3.1,106.8-1.9,107c1.3,0.1,16.4-105.7,17.9-105.5c1.5,0.2-17.5,105.5-16.2,105.8
				c1.2,0.3,30.5-103.1,32-102.7c1.4,0.4-31.6,102.7-30.4,103.2c1.2,0.4,44.2-99.1,45.5-98.6c1.4,0.5-45.3,98.6-44.1,99.2
				c1.1,0.6,57-93.7,58.3-93c1.2,0.6-58.1,93-57.1,93.7c1.1,0.7,68.9-86.8,70-86.1c1.1,0.8-70,86-69,86.8c1,0.8,79.4-78.5,80.4-77.6
				c0.9,0.9-80.5,77.4-79.6,78.4c0.9,0.9,88.4-68.7,89.2-67.7c0.8,1-89.4,67.3-88.7,68.4c0.7,1.1,95.7-57.5,96.3-56.4
				c0.6,1.1-96.5,55.7-95.9,56.9c0.6,1.1,100.9-44.7,101.3-43.6c0.4,1.2-101.6,42.7-101.1,43.9c0.5,1.2,103.9-30.8,104.1-29.5
				c0.1,1.2-104.3,28.5-104,29.7c0.3,1.3,104.5-16,104.5-14.7c-0.1,1.3-104.6,13.5-104.5,14.8C130.8,782.6,233.6,780.5,233.3,781.8z
				"/>
		</g>
		<g class="st3">
			<path class="st4" d="M239.1,781.8c-0.2,1.3-102.6-1.6-102.7-0.3c-0.1,1.3,99.2,14.3,98.8,15.6c-0.4,1.3-98.6-16.7-98.8-15.4
				c-0.2,1.3,93.6,29.2,93.1,30.5c-0.5,1.2-92.7-31.5-93.1-30.3c-0.4,1.2,86.6,43.4,86,44.6c-0.7,1.2-85.5-45.4-86.1-44.3
				c-0.6,1.1,78.6,56.4,77.9,57.5c-0.7,1.1-77.5-58.1-78.2-57c-0.7,1,70,68,69.2,69c-0.8,1-68.8-69.3-69.7-68.3
				c-0.8,0.9,61.1,78,60.2,78.9c-0.9,0.9-60-79-60.9-78.2c-0.9,0.8,52.1,86.5,51.2,87.3c-0.9,0.8-51.1-87.2-52.1-86.5
				c-1,0.7,43.1,93.5,42.2,94.1c-0.9,0.6-42.3-94-43.4-93.4c-1.1,0.6,34.3,99,33.4,99.5c-0.9,0.5-33.5-99.3-34.7-98.9
				c-1.1,0.4,25.6,103,24.6,103.4c-0.9,0.3-24.9-103.2-26.1-102.9c-1.2,0.3,17,105.7,16,105.9c-0.9,0.2-16.4-105.7-17.6-105.6
				c-1.2,0.1,8.5,106.9,7.6,107c-0.9,0.1-8.1-106.9-9.3-106.9c-1.2,0,0.2,106.9-0.8,106.8c-1-0.1,0.2-106.8-1-106.9
				c-1.2-0.1-8.2,105.5-9.2,105.3c-1-0.2,8.7-105.3,7.5-105.6c-1.2-0.3-16.9,102.8-17.9,102.5c-1-0.4,17.5-102.5,16.3-102.9
				c-1.2-0.4-25.8,98.8-26.8,98.3c-1-0.5,26.5-98.3,25.4-98.9c-1.1-0.6-35,93.3-35.9,92.7c-1-0.6,35.8-92.7,34.7-93.4
				c-1.1-0.7-44.3,86.4-45.2,85.7c-1-0.8,45.2-85.6,44.2-86.4c-1-0.8-53.8,78.1-54.7,77.2c-0.9-0.9,54.8-77,53.9-77.9
				c-0.9-0.9-63.3,68.3-64.2,67.3c-0.9-1,64.5-66.9,63.7-68c-0.8-1.1-72.8,57.1-73.6,56c-0.8-1.1,73.9-55.3,73.3-56.5
				c-0.7-1.1-81.8,44.4-82.6,43.3c-0.8-1.2,82.9-42.4,82.4-43.6c-0.5-1.2-90.1,30.6-90.8,29.3c-0.6-1.2,91-28.2,90.7-29.5
				c-0.3-1.3-97.1,15.8-97.6,14.6c-0.5-1.3,97.7-13.4,97.6-14.7c-0.2-1.3-102.3,0.8-102.7-0.5c-0.3-1.3,102.6,1.5,102.6,0.3
				c0-1.3-105.5-14.2-105.7-15.5c-0.2-1.3,105.5,16.6,105.7,15.3c0.2-1.3-106.4-29-106.4-30.2c0-1.2,106.1,31.3,106.4,30.1
				c0.4-1.2-104.9-43.1-104.7-44.3c0.3-1.2,104.3,45.1,104.8,44c0.5-1.1-101-56-100.5-57.1c0.5-1.1,100.1,57.7,100.8,56.6
				c0.7-1-94.8-67.6-94.2-68.6c0.7-1,93.8,68.9,94.6,67.9c0.8-0.9-86.7-77.6-85.9-78.5c0.9-0.9,85.7,78.6,86.6,77.7
				c0.9-0.8-77-86.1-75.9-86.8c1-0.8,75.9,86.8,76.9,86.1c1-0.7-65.8-93.1-64.6-93.7c1.2-0.6,64.6,93.6,65.7,93
				c1.1-0.6-53.4-98.7-52.1-99.2c1.3-0.5,52.3,99,53.4,98.6c1.2-0.4-40.1-102.8-38.7-103.1c1.4-0.4,39,103,40.2,102.7
				c1.2-0.3-26.2-105.5-24.7-105.7c1.5-0.2,25.1,105.6,26.4,105.5c1.2-0.1-12-106.9-10.5-107c1.5-0.1,11,106.9,12.3,106.9
				c1.3,0,2.2-106.9,3.7-106.9c1.5,0.1-3.1,106.8-1.9,107c1.3,0.1,16.4-105.7,17.9-105.5c1.5,0.2-17.5,105.5-16.2,105.8
				c1.2,0.3,30.5-103.1,32-102.7c1.4,0.4-31.6,102.7-30.4,103.2c1.2,0.4,44.2-99.1,45.5-98.6c1.4,0.5-45.3,98.6-44.1,99.2
				c1.1,0.6,57-93.7,58.3-93c1.2,0.6-58.1,93-57.1,93.7c1.1,0.7,68.9-86.8,70-86.1c1.1,0.8-70,86-69,86.8c1,0.8,79.4-78.5,80.4-77.6
				c0.9,0.9-80.5,77.4-79.6,78.4c0.9,0.9,88.4-68.7,89.2-67.7c0.8,1-89.4,67.3-88.7,68.4c0.7,1.1,95.7-57.5,96.3-56.4
				c0.6,1.1-96.5,55.7-95.9,56.9c0.6,1.1,100.9-44.7,101.3-43.6c0.4,1.2-101.6,42.7-101.1,43.9c0.5,1.2,103.9-30.8,104.1-29.5
				c0.1,1.2-104.3,28.5-104,29.7c0.3,1.3,104.5-16,104.5-14.7c-0.1,1.3-104.6,13.5-104.5,14.8C136.6,782.6,239.4,780.5,239.1,781.8z
				"/>
		</g>
	</g>
	<g id="Sun_1_">
		<circle class="st5" cx="1737.9" cy="613.6" r="119.5"/>
	</g>
	<g class="st2">
		<g class="st3">
			<path class="st4" d="M173,764c-0.2,1.3-102.6-1.6-102.7-0.3c-0.1,1.3,99.2,14.3,98.8,15.6c-0.4,1.3-98.6-16.7-98.8-15.4
				c-0.2,1.3,93.6,29.2,93.1,30.5c-0.5,1.2-92.7-31.5-93.1-30.3c-0.4,1.2,86.6,43.4,86,44.6c-0.7,1.2-85.5-45.4-86.1-44.3
				c-0.6,1.1,78.6,56.4,77.9,57.5c-0.7,1.1-77.5-58.1-78.2-57c-0.7,1,70,68,69.2,69c-0.8,1-68.8-69.3-69.7-68.3
				c-0.8,0.9,61.1,78,60.2,78.9c-0.9,0.9-60-79-60.9-78.2c-0.9,0.8,52.1,86.5,51.2,87.3c-0.9,0.8-51.1-87.2-52.1-86.5
				c-1,0.7,43.1,93.5,42.2,94.1c-0.9,0.6-42.3-94-43.4-93.4c-1.1,0.6,34.3,99,33.4,99.5c-0.9,0.5-33.5-99.3-34.7-98.9
				c-1.1,0.4,25.6,103,24.6,103.4c-0.9,0.3-24.9-103.2-26.1-102.9c-1.2,0.3,17,105.7,16,105.9c-0.9,0.2-16.4-105.7-17.6-105.6
				c-1.2,0.1,8.5,106.9,7.6,107c-0.9,0.1-8.1-106.9-9.3-106.9c-1.2,0,0.2,106.9-0.8,106.8c-1-0.1,0.2-106.8-1-106.9
				c-1.2-0.1-8.2,105.5-9.2,105.3c-1-0.2,8.7-105.3,7.5-105.6C55.7,768.4,40,871.6,39,871.2c-1-0.4,17.5-102.5,16.3-102.9
				c-1.2-0.4-25.8,98.8-26.8,98.3c-1-0.5,26.5-98.3,25.4-98.9c-1.1-0.6-35,93.3-35.9,92.7c-1-0.6,35.8-92.7,34.7-93.4
				c-1.1-0.7-44.3,86.4-45.2,85.7c-1-0.8,45.2-85.6,44.2-86.4c-1-0.8-53.8,78.1-54.7,77.2c-0.9-0.9,54.8-77,53.9-77.9
				c-0.9-0.9-63.3,68.3-64.2,67.3c-0.9-1,64.5-66.9,63.7-68c-0.8-1.1-72.8,57.1-73.6,56c-0.8-1.1,73.9-55.3,73.3-56.5
				c-0.7-1.1-81.8,44.4-82.6,43.3c-0.8-1.2,82.9-42.4,82.4-43.6c-0.5-1.2-90.1,30.6-90.8,29.3c-0.6-1.2,91-28.2,90.7-29.5
				c-0.3-1.3-97.1,15.8-97.6,14.6c-0.5-1.3,97.7-13.4,97.6-14.7c-0.2-1.3-102.3,0.8-102.7-0.5c-0.3-1.3,102.6,1.5,102.6,0.3
				c0-1.3-105.5-14.2-105.7-15.5c-0.2-1.3,105.5,16.6,105.7,15.3c0.2-1.3-106.4-29-106.4-30.2c0-1.2,106.1,31.3,106.4,30.1
				C50.2,761.9-55,720-54.8,718.8c0.3-1.2,104.3,45.1,104.8,44c0.5-1.1-101-56-100.5-57.1c0.5-1.1,100.1,57.7,100.8,56.6
				c0.7-1-94.8-67.6-94.2-68.6c0.7-1,93.8,68.9,94.6,67.9c0.8-0.9-86.7-77.6-85.9-78.5c0.9-0.9,85.7,78.6,86.6,77.7
				c0.9-0.8-77-86.1-75.9-86.8c1-0.8,75.9,86.8,76.9,86.1c1-0.7-65.8-93.1-64.6-93.7c1.2-0.6,64.6,93.6,65.7,93
				c1.1-0.6-53.4-98.7-52.1-99.2c1.3-0.5,52.3,99,53.4,98.6c1.2-0.4-40.1-102.8-38.7-103.1c1.4-0.4,39,103,40.2,102.7
				c1.2-0.3-26.2-105.5-24.7-105.7c1.5-0.2,25.1,105.6,26.4,105.5c1.2-0.1-12-106.9-10.5-107c1.5-0.1,11,106.9,12.3,106.9
				c1.3,0,2.2-106.9,3.7-106.9c1.5,0.1-3.1,106.8-1.9,107c1.3,0.1,16.4-105.7,17.9-105.5c1.5,0.2-17.5,105.5-16.2,105.8
				c1.2,0.3,30.5-103.1,32-102.7c1.4,0.4-31.6,102.7-30.4,103.2c1.2,0.4,44.2-99.1,45.5-98.6c1.4,0.5-45.3,98.6-44.1,99.2
				c1.1,0.6,57-93.7,58.3-93c1.2,0.6-58.1,93-57.1,93.7c1.1,0.7,68.9-86.8,70-86.1c1.1,0.8-70,86-69,86.8c1,0.8,79.4-78.5,80.4-77.6
				c0.9,0.9-80.5,77.4-79.6,78.4c0.9,0.9,88.4-68.7,89.2-67.7c0.8,1-89.4,67.3-88.7,68.4c0.7,1.1,95.7-57.5,96.3-56.4
				c0.6,1.1-96.5,55.7-95.9,56.9c0.6,1.1,100.9-44.7,101.3-43.6c0.4,1.2-101.6,42.7-101.1,43.9c0.5,1.2,103.9-30.8,104.1-29.5
				c0.1,1.2-104.3,28.5-104,29.7c0.3,1.3,104.5-16,104.5-14.7c-0.1,1.3-104.6,13.5-104.5,14.8C70.5,764.8,173.3,762.7,173,764z"/>
		</g>
		<g class="st3">
			<path class="st4" d="M178.8,764c-0.2,1.3-102.6-1.6-102.7-0.3c-0.1,1.3,99.2,14.3,98.8,15.6c-0.4,1.3-98.6-16.7-98.8-15.4
				c-0.2,1.3,93.6,29.2,93.1,30.5c-0.5,1.2-92.7-31.5-93.1-30.3c-0.4,1.2,86.6,43.4,86,44.6c-0.7,1.2-85.5-45.4-86.1-44.3
				c-0.6,1.1,78.6,56.4,77.9,57.5c-0.7,1.1-77.5-58.1-78.2-57c-0.7,1,70,68,69.2,69c-0.8,1-68.8-69.3-69.7-68.3
				c-0.8,0.9,61.1,78,60.2,78.9c-0.9,0.9-60-79-60.9-78.2c-0.9,0.8,52.1,86.5,51.2,87.3c-0.9,0.8-51.1-87.2-52.1-86.5
				c-1,0.7,43.1,93.5,42.2,94.1c-0.9,0.6-42.3-94-43.4-93.4c-1.1,0.6,34.3,99,33.4,99.5c-0.9,0.5-33.5-99.3-34.7-98.9
				c-1.1,0.4,25.6,103,24.6,103.4c-0.9,0.3-24.9-103.2-26.1-102.9c-1.2,0.3,17,105.7,16,105.9c-0.9,0.2-16.4-105.7-17.6-105.6
				c-1.2,0.1,8.5,106.9,7.6,107c-0.9,0.1-8.1-106.9-9.3-106.9c-1.2,0,0.2,106.9-0.8,106.8c-1-0.1,0.2-106.8-1-106.9
				c-1.2-0.1-8.2,105.5-9.2,105.3c-1-0.2,8.7-105.3,7.5-105.6c-1.2-0.3-16.9,102.8-17.9,102.5c-1-0.4,17.5-102.5,16.3-102.9
				c-1.2-0.4-25.8,98.8-26.8,98.3c-1-0.5,26.5-98.3,25.4-98.9c-1.1-0.6-35,93.3-35.9,92.7c-1-0.6,35.8-92.7,34.7-93.4
				c-1.1-0.7-44.3,86.4-45.2,85.7c-1-0.8,45.2-85.6,44.2-86.4c-1-0.8-53.8,78.1-54.7,77.2c-0.9-0.9,54.8-77,53.9-77.9
				c-0.9-0.9-63.3,68.3-64.2,67.3c-0.9-1,64.5-66.9,63.7-68c-0.8-1.1-72.8,57.1-73.6,56c-0.8-1.1,73.9-55.3,73.3-56.5
				c-0.7-1.1-81.8,44.4-82.6,43.3c-0.8-1.2,82.9-42.4,82.4-43.6c-0.5-1.2-90.1,30.6-90.8,29.3c-0.6-1.2,91-28.2,90.7-29.5
				c-0.3-1.3-97.1,15.8-97.6,14.6c-0.5-1.3,97.7-13.4,97.6-14.7c-0.2-1.3-102.3,0.8-102.7-0.5c-0.3-1.3,102.6,1.5,102.6,0.3
				c0-1.3-105.5-14.2-105.7-15.5c-0.2-1.3,105.5,16.6,105.7,15.3c0.2-1.3-106.4-29-106.4-30.2c0-1.2,106.1,31.3,106.4,30.1
				C56,761.9-49.2,720-49,718.8c0.3-1.2,104.3,45.1,104.8,44c0.5-1.1-101-56-100.5-57.1c0.5-1.1,100.1,57.7,100.8,56.6
				c0.7-1-94.8-67.6-94.2-68.6c0.7-1,93.8,68.9,94.6,67.9c0.8-0.9-86.7-77.6-85.9-78.5c0.9-0.9,85.7,78.6,86.6,77.7
				c0.9-0.8-77-86.1-75.9-86.8c1-0.8,75.9,86.8,76.9,86.1c1-0.7-65.8-93.1-64.6-93.7c1.2-0.6,64.6,93.6,65.7,93
				c1.1-0.6-53.4-98.7-52.1-99.2c1.3-0.5,52.3,99,53.4,98.6c1.2-0.4-40.1-102.8-38.7-103.1c1.4-0.4,39,103,40.2,102.7
				c1.2-0.3-26.2-105.5-24.7-105.7c1.5-0.2,25.1,105.6,26.4,105.5c1.2-0.1-12-106.9-10.5-107c1.5-0.1,11,106.9,12.3,106.9
				c1.3,0,2.2-106.9,3.7-106.9c1.5,0.1-3.1,106.8-1.9,107c1.3,0.1,16.4-105.7,17.9-105.5c1.5,0.2-17.5,105.5-16.2,105.8
				c1.2,0.3,30.5-103.1,32-102.7c1.4,0.4-31.6,102.7-30.4,103.2c1.2,0.4,44.2-99.1,45.5-98.6c1.4,0.5-45.3,98.6-44.1,99.2
				c1.1,0.6,57-93.7,58.3-93c1.2,0.6-58.1,93-57.1,93.7c1.1,0.7,68.9-86.8,70-86.1c1.1,0.8-70,86-69,86.8c1,0.8,79.4-78.5,80.4-77.6
				c0.9,0.9-80.5,77.4-79.6,78.4c0.9,0.9,88.4-68.7,89.2-67.7c0.8,1-89.4,67.3-88.7,68.4c0.7,1.1,95.7-57.5,96.3-56.4
				c0.6,1.1-96.5,55.7-95.9,56.9c0.6,1.1,100.9-44.7,101.3-43.6c0.4,1.2-101.6,42.7-101.1,43.9c0.5,1.2,103.9-30.8,104.1-29.5
				c0.1,1.2-104.3,28.5-104,29.7c0.3,1.3,104.5-16,104.5-14.7c-0.1,1.3-104.6,13.5-104.5,14.8C76.3,764.8,179.1,762.7,178.8,764z"/>
		</g>
	</g>
	<g id="Hill5">
		<g>
			<path class="st4" d="M-30.3,714.6c0,0,857.7,73.9,1064.6,51.6c206.9-22.3,480.6-117.8,928.8-78.5v99.3H-31.4L-30.3,714.6z"/>
			<path class="st4" d="M-30.3,765.4c248.4,14.4,516.1,22.5,800.7,20.7c437.4-2.7,837.3-28,1192.7-64.3v160.5H-31.4L-30.3,765.4z"/>
		</g>
	</g>
	<g id="Hill4">
		<path class="st6" d="M-29,746.8c0,0,852.5,122.5,1041.5,80.1c189.1-42.3,653.3-138.2,943.6-85.3l4.7,206.9H-31.4L-29,746.8z"/>
	</g>
	<g id="Hill3">
		<path class="st7" d="M-31.4,882.4c106.3-29.7,255.4-61.1,436.9-68.3c297.5-11.9,532.4,47,662.3,88.3
			c222.5,34.3,374.7,10.8,474-18.5c100.9-29.7,218.5-86.2,336.4-53.1c38.7,10.9,66,28.2,82.8,40.8v77v61.6H-33.5L-31.4,882.4z"/>
	</g>
	<g id="Hill2">
		<path class="st8" d="M-35.5,971.7c106.3-29.7,255.4-61.1,436.9-68.3c297.5-11.9,532.4,47,662.3,88.3
			c222.5,34.3,374.7,10.8,474-18.5c100.9-29.7,218.5-86.2,336.4-53.1c38.7,10.9,66,28.2,82.8,40.8v77v61.6H-37.6L-35.5,971.7z"/>
	</g>
	<g id="Hill1">
		<g>
			<path class="st9" d="M1957.8,1115v-53.9c0,0-12.3,3.1-22.9,0c-10.5-3.1-40.3-4.2-50.2-4.5c-9.9-0.3-22.9-2.4-27.9-3.8
				c-5-1.4-27.9,7-37.2,4.5c-27.4-7.2-65.3-13.4-70.8-11.6c-5.5,1.8-40.2,2.1-50.2-0.7c-9.9-2.8-80.6-6.3-80.6-6.3h-50.3
				c0,0-30.3-8.7-36.5-7c-6.2,1.7-55.2-1-55.2-1l-24.8-3.5c0,0-16.7,0-22.3,0c-5.6,0-25.4-7.7-25.4-7.7s-8.7-0.7-20.5,3.1
				c-11.8,3.8-23.6,2.1-31.6,2.1c-8.1,0-68.2,0.7-68.2,0.7s-58.6-7-67.1,0c-8.5,7-71.8,10.5-79.2,9.1c-7.4-1.4-63.3-8.4-73.2-8.4
				c-9.9,0-106.7-5.6-126.5,0c-19.8,5.6-84.3,7.7-102.9,9.1c-18.6,1.4-112.9,6.3-112.9,6.3c-37.4,3.6-117.4,25.2-146.4,25.2
				c-30.5,0-142.2,9.8-166.2,4.2c-21.1-4.9-76.9,4.9-76.9,4.9s-63.5,3.5-67.1,0c-3.6-3.5-36.2-10.4-43.3-10.4c-7.1,0-4.3-4-8.1-2.6
				c-3.7,1.4,2.2,11.9-4.7,9.6c-6.8-2.3-1.2-3.5-7.4-4.2c-6.2-0.7-10.5-5.1-13.7-6.5c-3.1-1.4-19.2-8.6-23-6.8
				c-3.7,1.8-1.9,5.6-5.9,6.5c-4,0.9-13.3,1.4-13.3-1.2c0-2.6,6.2-6.8,1.2-10.9c-5-4-15.8-11.2-28.2-9.1
				c-12.4,2.1-24.8,5.4-24.2,6.3c0.6,0.9,1.2,9.1-5.6,7.5c-6.8-1.6-24.5-10.5-25.7-14c-1.2-3.5,1.2-5.1-1.6-4.2
				c-2.8,0.9-20.2,1.1-27.6-1.1c-7.4-2.1-10.5-7.7-13.3-6.5s0,3.2-2.8,2.8c-2.8-0.4-6.5-4.7-10.5-4c-4,0.7,4,2.5-5,1.4
				c-9-1.1-12.4-3-17.1-2.3c-4.7,0.7-17.1,1.9-17.1,1.9l-3.5,2v84.9H1957.8z"/>
		</g>
	</g>
	<g class="st2">
		<g class="st3">
			<path class="st6" d="M1465,817.6c-0.7,0,8.9-105.9,8-106.1c-0.9-0.2-17.9,104.1-18.6,103.9c-0.7-0.2,15.9-104.5,15-104.7
				c-0.9-0.2-17,104.1-17.7,103.9c-0.7-0.2,15-104.5,14.1-104.7c-0.9-0.2-16.1,104.1-16.8,103.9c-0.7-0.2,14.1-104.5,13.1-104.7
				c-0.9-0.2-15.2,104.1-15.9,103.9c-0.7-0.2,13.1-104.5,12.2-104.7c-0.9-0.2-14.3,104.1-15,103.9c-0.7-0.2,12.2-104.5,11.3-104.7
				c-0.9-0.2-13.4,104.1-14,103.9c-0.7-0.2,11.3-104.5,10.4-104.7c-0.9-0.2-12.4,104.1-13.1,103.8c-0.7-0.2,10.4-104.5,9.4-104.7
				c-0.9-0.2-11.5,104-12.2,103.8c-0.7-0.2,9.4-104.4,8.5-104.6c-0.9-0.2-10.6,104-11.3,103.8c-0.7-0.2,8.5-104.4,7.6-104.6
				c-0.9-0.2-9.7,104-10.4,103.8c-0.7-0.2,7.6-104.4,6.7-104.6c-0.9-0.2-8.8,104-9.5,103.8c-0.7-0.2,6.7-104.4,5.7-104.6
				c-0.9-0.2-7.9,104-8.6,103.8c-0.7-0.2,21.6-98.3,20.8-98.8c-0.2-0.7-67.1,52.7-67.3,52c-0.3-0.7,94.3-15.5,94.2-16.2
				c-0.1-0.7-96.7,10-97,9.3c-0.3-0.7,96.9-9.8,96.8-10.5c-0.1-0.7-99.2,4-99.4,3.3c-0.2-0.7,99.3-3.6,99.3-4.2
				c0-0.7-101.4-2.5-101.6-3.2c-0.2-0.7,101.5,3.3,101.6,2.6c0-0.7-103.3-9.7-103.4-10.4c-0.1-0.7,103.3,10.9,103.4,10.2
				c0.1-0.7-104.6-17.7-104.7-18.4c-0.1-0.7,104.5,19.3,104.6,18.6c0.1-0.7-105.2-26.5-105.2-27.2c0-0.7,104.8,28.6,105,28
				c0.2-0.7-104.6-36.3-104.6-37c0.1-0.7,103.8,39,104.1,38.4c0.3-0.6-102.4-47.2-102.3-47.8c0.2-0.6,100.9,50.5,101.2,49.9
				c0.3-0.6-97.8-58.9-97.6-59.5c0.3-0.6,95.4,62.7,95.8,62.2c0.4-0.5-90.1-71.1-89.7-71.6c0.4-0.5,86.7,75.2,87.1,74.7
				c0.5-0.5-78.8-83-78.2-83.4c0.5-0.4,74.2,86.8,74.7,86.4c0.5-0.4-63.8-93.3-63.2-93.6c1-0.5,57,96.9,57.8,96.5
				c0.9-0.4-37.2-103.4-36-103.6c1.2-0.2,28.6,105.2,29.6,105.2c1-0.1-8.5-106.9-7.2-106.9c1.3,0,1.6,106.6,2.6,106.8
				c1,0.1,16-104.8,17.2-104.6c1.2,0.2-20.7,103.7-19.7,104c0.9,0.3,35-100,36.2-99.6c1.1,0.4-38,98.8-37,99.3
				c0.9,0.5,49.6-94.1,50.6-93.6c1,0.5-51.2,93.2-50.3,93.8c0.9,0.6,60.7-87.9,61.7-87.3c0.9,0.6-61.5,87.4-60.7,88.1
				c0.8,0.7,69.3-81.8,70.2-81.1c0.8,0.7-69.5,81.6-68.8,82.3c0.8,0.7,76-75.7,76.8-75c0.7,0.8-75.9,75.8-75.2,76.6
				c0.7,0.8,81.3-69.8,81.9-68.9c0.6,0.8-80.9,70.1-80.2,71c0.7,0.8,85.3-63.8,85.9-63c0.5,0.9-84.8,64.4-84.2,65.3
				c0.6,0.9,88.4-57.9,88.9-57c0.5,0.9-87.8,58.6-87.3,59.5c0.5,0.9,90.7-51.9,91.1-51c0.4,0.9-90,52.7-89.5,53.7
				c0.1,0.1,91.3-48.9,91.3-48.7c0,0.1-91.2,49-91.1,49.1c0.1,0.1,91.5-48.1,91.5-47.9c0,0.1-91.4,48.2-91.3,48.3
				c0.1,0.1,91.6-47.3,91.7-47.1c0,0.1-91.5,47.4-91.5,47.5c0.1,0.1,91.8-46.4,91.8-46.3c0,0.1-91.7,46.6-91.7,46.7
				c0.1,0.1,91.9-45.6,92-45.5c0,0.1-91.9,45.7-91.8,45.9c0.1,0.1,92.1-44.8,92.1-44.7c0,0.1-92,44.9-92,45
				c0.1,0.1,92.2-44,92.3-43.8c0,0.1-92.1,44.1-92.1,44.2c0.1,0.1,92.3-43.1,92.4-43c0,0.1-92.3,43.3-92.2,43.4
				c0.1,0.1,92.5-42.3,92.5-42.2c0,0.1-92.4,42.4-92.3,42.5c0.1,0.1,92.6-41.5,92.6-41.3c0,0.1-92.5,41.6-92.4,41.7
				c0.1,0.1,92.6-40.6,92.7-40.5c0,0.1-92.6,40.7-92.5,40.9c0.1,0.1,92.7-39.7,92.8-39.6s-92.7,39.9-92.6,40
				c0.1,0.1,52.1,32,52.1,32.2c-0.6,0.2-16.5-103.8-17.3-103.6c-0.8,0.2,11.7,105.3,11.1,105.4c-0.6,0.2-13.6-104.9-14.4-104.8
				c-0.8,0.2,12.6,105.2,11.9,105.4c-0.6,0.2-14.4-104.9-15.2-104.8c-0.8,0.2,13.4,105.2,12.8,105.4c-0.6,0.2-15.2-104.9-16-104.8
				c-0.8,0.2,14.2,105.2,13.6,105.4c-0.6,0.2-16-104.9-16.8-104.7c-0.8,0.2,15,105.2,14.4,105.4c-0.6,0.2-16.8-104.9-17.6-104.7
				c-0.8,0.2,15.8,105.2,15.2,105.4c-0.6,0.2-17.6-104.9-18.4-104.7c-0.8,0.2,16.7,105.2,16.1,105.3c-0.6,0.2-18.5-104.9-19.3-104.7
				c-0.8,0.2,17.5,105.2,16.9,105.3c-0.6,0.2-19.3-104.9-20.1-104.7c-0.8,0.2,18.3,105.2,17.7,105.3c-0.6,0.2-20.1-104.8-20.9-104.7
				c-0.8,0.2,19.1,105.1,18.5,105.3c-0.6,0.2-20.9-104.8-21.7-104.7c-0.8,0.2,20,105.1,19.4,105.3c-0.6,0.2-21.7-104.8-22.5-104.7
				c-0.8,0.2,57.7,55.7,57.5,56.5C1507.9,794.5,1465.6,817.7,1465,817.6z"/>
		</g>
		<g class="st3">
			<path class="st6" d="M1520.3,814.4c-0.7,0,8.9-105.9,8-106.1c-0.9-0.2-17.9,104.1-18.6,103.9c-0.7-0.2,15.9-104.5,15-104.7
				c-0.9-0.2-17,104.1-17.7,103.9c-0.7-0.2,15-104.5,14.1-104.7c-0.9-0.2-16.1,104.1-16.8,103.9c-0.7-0.2,14.1-104.5,13.1-104.7
				c-0.9-0.2-15.2,104.1-15.9,103.9c-0.7-0.2,13.1-104.5,12.2-104.7c-0.9-0.2-14.3,104.1-15,103.9c-0.7-0.2,12.2-104.5,11.3-104.7
				c-0.9-0.2-13.4,104.1-14,103.9c-0.7-0.2,11.3-104.5,10.4-104.7c-0.9-0.2-12.4,104.1-13.1,103.8c-0.7-0.2,10.4-104.5,9.4-104.7
				c-0.9-0.2-11.5,104-12.2,103.8c-0.7-0.2,9.4-104.4,8.5-104.6c-0.9-0.2-10.6,104-11.3,103.8c-0.7-0.2,8.5-104.4,7.6-104.6
				c-0.9-0.2-9.7,104-10.4,103.8c-0.7-0.2,7.6-104.4,6.7-104.6c-0.9-0.2-8.8,104-9.5,103.8c-0.7-0.2,6.7-104.4,5.7-104.6
				c-0.9-0.2-7.9,104-8.6,103.8c-0.7-0.2,21.6-98.3,20.8-98.8c-0.2-0.7-67.1,52.7-67.3,52c-0.3-0.7,94.3-15.5,94.2-16.2
				c-0.1-0.7-96.7,10-97,9.3c-0.3-0.7,96.9-9.8,96.8-10.5c-0.1-0.7-99.2,4-99.4,3.3c-0.2-0.7,99.3-3.6,99.3-4.2
				c0-0.7-101.4-2.5-101.6-3.2c-0.2-0.7,101.5,3.3,101.6,2.6c0-0.7-103.3-9.7-103.4-10.4c-0.1-0.7,103.3,10.9,103.4,10.2
				c0.1-0.7-104.6-17.7-104.7-18.4c-0.1-0.7,104.5,19.3,104.6,18.6c0.1-0.7-105.2-26.5-105.2-27.2c0-0.7,104.8,28.6,105,28
				c0.2-0.7-104.6-36.3-104.6-37c0.1-0.7,103.8,39,104.1,38.4c0.3-0.6-102.4-47.2-102.3-47.8c0.2-0.6,100.9,50.5,101.2,49.9
				c0.3-0.6-97.8-58.9-97.6-59.5c0.3-0.6,95.4,62.7,95.8,62.2c0.4-0.5-90.1-71.1-89.7-71.6c0.4-0.5,86.7,75.2,87.1,74.7
				c0.5-0.5-78.8-83-78.2-83.4c0.5-0.4,74.2,86.8,74.7,86.4c0.5-0.4-63.8-93.3-63.2-93.6c1-0.5,57,96.9,57.8,96.5
				c0.9-0.4-37.2-103.4-36-103.6c1.2-0.2,28.6,105.2,29.6,105.2c1-0.1-8.5-106.9-7.2-106.9c1.3,0,1.6,106.6,2.6,106.8
				c1,0.1,16-104.8,17.2-104.6c1.2,0.2-20.7,103.7-19.7,104c0.9,0.3,35-100,36.2-99.6c1.1,0.4-38,98.8-37,99.3
				c0.9,0.5,49.6-94.1,50.6-93.6c1,0.5-51.2,93.2-50.3,93.8c0.9,0.6,60.7-87.9,61.7-87.3c0.9,0.6-61.5,87.4-60.7,88.1
				c0.8,0.7,69.3-81.8,70.2-81.1c0.8,0.7-69.5,81.6-68.8,82.3c0.8,0.7,76-75.7,76.8-75c0.7,0.8-75.9,75.8-75.2,76.6
				c0.7,0.8,81.3-69.8,81.9-68.9c0.6,0.8-80.9,70.1-80.2,71c0.7,0.8,85.3-63.8,85.9-63c0.5,0.9-84.8,64.4-84.2,65.3
				c0.6,0.9,88.4-57.9,88.9-57c0.5,0.9-87.8,58.6-87.3,59.5c0.5,0.9,90.7-51.9,91.1-51c0.4,0.9-90,52.7-89.5,53.7
				c0.1,0.1,91.3-48.9,91.3-48.7c0,0.1-91.2,49-91.1,49.1c0.1,0.1,91.5-48.1,91.5-47.9c0,0.1-91.4,48.2-91.3,48.3
				c0.1,0.1,91.6-47.3,91.7-47.1s-91.5,47.4-91.5,47.5c0.1,0.1,91.8-46.4,91.8-46.3c0,0.1-91.7,46.6-91.7,46.7s91.9-45.6,92-45.5
				c0,0.1-91.9,45.7-91.8,45.9c0.1,0.1,92.1-44.8,92.1-44.7s-92,44.9-92,45c0.1,0.1,92.2-44,92.3-43.8c0,0.1-92.1,44.1-92.1,44.2
				s92.3-43.1,92.4-43c0,0.1-92.3,43.3-92.2,43.4c0.1,0.1,92.5-42.3,92.5-42.2c0,0.1-92.4,42.4-92.3,42.5
				c0.1,0.1,92.6-41.5,92.6-41.3c0,0.1-92.5,41.6-92.4,41.7c0.1,0.1,92.6-40.6,92.7-40.5c0,0.1-92.6,40.7-92.5,40.9
				c0.1,0.1,92.7-39.7,92.8-39.6s-92.7,39.9-92.6,40c0.1,0.1,52.1,32,52.1,32.2c-0.6,0.2-16.5-103.8-17.3-103.6
				c-0.8,0.2,11.7,105.3,11.1,105.4c-0.6,0.2-13.6-104.9-14.4-104.8c-0.8,0.2,12.6,105.2,11.9,105.4c-0.6,0.2-14.4-104.9-15.2-104.8
				c-0.8,0.2,13.4,105.2,12.8,105.4c-0.6,0.2-15.2-104.9-16-104.8c-0.8,0.2,14.2,105.2,13.6,105.4c-0.6,0.2-16-104.9-16.8-104.7
				c-0.8,0.2,15,105.2,14.4,105.4c-0.6,0.2-16.8-104.9-17.6-104.7c-0.8,0.2,15.8,105.2,15.2,105.4c-0.6,0.2-17.6-104.9-18.4-104.7
				c-0.8,0.2,16.7,105.2,16.1,105.3c-0.6,0.2-18.5-104.9-19.3-104.7c-0.8,0.2,17.5,105.2,16.9,105.3c-0.6,0.2-19.3-104.9-20.1-104.7
				c-0.8,0.2,18.3,105.2,17.7,105.3c-0.6,0.2-20.1-104.8-20.9-104.7c-0.8,0.2,19.1,105.1,18.5,105.3c-0.6,0.2-20.9-104.8-21.7-104.7
				c-0.8,0.2,20,105.1,19.4,105.3c-0.6,0.2-21.7-104.8-22.5-104.7c-0.8,0.2,57.7,55.7,57.5,56.5
				C1563.2,791.3,1520.9,814.5,1520.3,814.4z"/>
		</g>
		<g class="st3">
			<path class="st6" d="M1598.3,792.4c-0.7,0,8.9-105.9,8-106.1c-0.9-0.2-17.9,104.1-18.6,103.9c-0.7-0.2,15.9-104.5,15-104.7
				c-0.9-0.2-17,104.1-17.7,103.9c-0.7-0.2,15-104.5,14.1-104.7c-0.9-0.2-16.1,104.1-16.8,103.9c-0.7-0.2,14.1-104.5,13.1-104.7
				c-0.9-0.2-15.2,104.1-15.9,103.9c-0.7-0.2,13.1-104.5,12.2-104.7c-0.9-0.2-14.3,104.1-15,103.9c-0.7-0.2,12.2-104.5,11.3-104.7
				c-0.9-0.2-13.4,104.1-14,103.9c-0.7-0.2,11.3-104.5,10.4-104.7c-0.9-0.2-12.4,104.1-13.1,103.8c-0.7-0.2,10.4-104.5,9.4-104.7
				c-0.9-0.2-11.5,104-12.2,103.8c-0.7-0.2,9.4-104.4,8.5-104.6c-0.9-0.2-10.6,104-11.3,103.8c-0.7-0.2,8.5-104.4,7.6-104.6
				c-0.9-0.2-9.7,104-10.4,103.8c-0.7-0.2,7.6-104.4,6.7-104.6c-0.9-0.2-8.8,104-9.5,103.8c-0.7-0.2,6.7-104.4,5.7-104.6
				c-0.9-0.2-7.9,104-8.6,103.8c-0.7-0.2,21.6-98.3,20.8-98.8c-0.2-0.7-67.1,52.7-67.3,52c-0.3-0.7,94.3-15.5,94.2-16.2
				c-0.1-0.7-96.7,10-97,9.3c-0.3-0.7,96.9-9.8,96.8-10.5c-0.1-0.7-99.2,4-99.4,3.3c-0.2-0.7,99.3-3.6,99.3-4.2
				c0-0.7-101.4-2.5-101.6-3.2c-0.2-0.7,101.5,3.3,101.6,2.6c0-0.7-103.3-9.7-103.4-10.4c-0.1-0.7,103.3,10.9,103.4,10.2
				c0.1-0.7-104.6-17.7-104.7-18.4c-0.1-0.7,104.5,19.3,104.6,18.6c0.1-0.7-105.2-26.5-105.2-27.2c0-0.7,104.8,28.6,105,28
				c0.2-0.7-104.6-36.3-104.6-37c0.1-0.7,103.8,39,104.1,38.4c0.3-0.6-102.4-47.2-102.3-47.8c0.2-0.6,100.9,50.5,101.2,49.9
				c0.3-0.6-97.8-58.9-97.6-59.5c0.3-0.6,95.4,62.7,95.8,62.2c0.4-0.5-90.1-71.1-89.7-71.6c0.4-0.5,86.7,75.2,87.1,74.7
				c0.5-0.5-78.8-83-78.2-83.4c0.5-0.4,74.2,86.8,74.7,86.4c0.5-0.4-63.8-93.3-63.2-93.6c1-0.5,57,96.9,57.8,96.5
				c0.9-0.4-37.2-103.4-36-103.6c1.2-0.2,28.6,105.2,29.6,105.2c1-0.1-8.5-106.9-7.2-106.9c1.3,0,1.6,106.6,2.6,106.8
				c1,0.1,16-104.8,17.2-104.6c1.2,0.2-20.7,103.7-19.7,104c0.9,0.3,35-100,36.2-99.6c1.1,0.4-38,98.8-37,99.3
				c0.9,0.5,49.6-94.1,50.6-93.6c1,0.5-51.2,93.2-50.3,93.8c0.9,0.6,60.7-87.9,61.7-87.3c0.9,0.6-61.5,87.4-60.7,88.1
				c0.8,0.7,69.3-81.8,70.2-81.1c0.8,0.7-69.5,81.6-68.8,82.3c0.8,0.7,76-75.7,76.8-75c0.7,0.8-75.9,75.8-75.2,76.6
				c0.7,0.8,81.3-69.8,81.9-68.9c0.6,0.8-80.9,70.1-80.2,71c0.7,0.8,85.3-63.8,85.9-63c0.5,0.9-84.8,64.4-84.2,65.3
				c0.6,0.9,88.4-57.9,88.9-57c0.5,0.9-87.8,58.6-87.3,59.5c0.5,0.9,90.7-51.9,91.1-51c0.4,0.9-90,52.7-89.5,53.7
				c0.1,0.1,91.3-48.9,91.3-48.7c0,0.1-91.2,49-91.1,49.1c0.1,0.1,91.5-48.1,91.5-47.9c0,0.1-91.4,48.2-91.3,48.3
				c0.1,0.1,91.6-47.3,91.7-47.1s-91.5,47.4-91.5,47.5c0.1,0.1,91.8-46.4,91.8-46.3c0,0.1-91.7,46.6-91.7,46.7s91.9-45.6,92-45.5
				c0,0.1-91.9,45.7-91.8,45.9c0.1,0.1,92.1-44.8,92.1-44.7s-92,44.9-92,45c0.1,0.1,92.2-44,92.3-43.8c0,0.1-92.1,44.1-92.1,44.2
				s92.3-43.1,92.4-43c0,0.1-92.3,43.3-92.2,43.4c0.1,0.1,92.5-42.3,92.5-42.2c0,0.1-92.4,42.4-92.3,42.5
				c0.1,0.1,92.6-41.5,92.6-41.3c0,0.1-92.5,41.6-92.4,41.7c0.1,0.1,92.6-40.6,92.7-40.5c0,0.1-92.6,40.7-92.5,40.9
				c0.1,0.1,92.7-39.7,92.8-39.6s-92.7,39.9-92.6,40c0.1,0.1,52.1,32,52.1,32.2c-0.6,0.2-16.5-103.8-17.3-103.6
				c-0.8,0.2,11.7,105.3,11.1,105.4c-0.6,0.2-13.6-104.9-14.4-104.8c-0.8,0.2,12.6,105.2,11.9,105.4c-0.6,0.2-14.4-104.9-15.2-104.8
				c-0.8,0.2,13.4,105.2,12.8,105.4c-0.6,0.2-15.2-104.9-16-104.8c-0.8,0.2,14.2,105.2,13.6,105.4c-0.6,0.2-16-104.9-16.8-104.7
				c-0.8,0.2,15,105.2,14.4,105.4c-0.6,0.2-16.8-104.9-17.6-104.7c-0.8,0.2,15.8,105.2,15.2,105.4c-0.6,0.2-17.6-104.9-18.4-104.7
				c-0.8,0.2,16.7,105.2,16.1,105.3c-0.6,0.2-18.5-104.9-19.3-104.7c-0.8,0.2,17.5,105.2,16.9,105.3c-0.6,0.2-19.3-104.9-20.1-104.7
				c-0.8,0.2,18.3,105.2,17.7,105.3c-0.6,0.2-20.1-104.8-20.9-104.7c-0.8,0.2,19.1,105.1,18.5,105.3c-0.6,0.2-20.9-104.8-21.7-104.7
				c-0.8,0.2,20,105.1,19.4,105.3c-0.6,0.2-21.7-104.8-22.5-104.7c-0.8,0.2,57.7,55.7,57.5,56.5
				C1641.2,769.3,1598.9,792.5,1598.3,792.4z"/>
		</g>
	</g>
</g>
<g id="Bushes">
	<g class="st2">
		<path class="st10" d="M570.6,983.8c-2.5,0-12.3-107.1-15.7-107c-3.4,0,8.4,107.1,5.9,107.1c-2.5,0-16-107-19.4-107
			c-3.4,0,11.9,107,9.5,107c-2.5,0-19.6-107-22.9-107c-3.4,0,15.5,107,13,107c-2.5,0-23.1-107-26.5-107c-3.4,0,19.1,107,16.6,107
			c-2.5,0-26.7-107-30.1-106.9c-3.4,0,22.7,107,20.2,107c-2.5,0-30.3-106.9-33.7-106.9c-3.4,0,26.2,106.9,23.8,106.9
			c-2.5,0-33.9-106.9-37.2-106.9c-3.4,0,29.8,106.9,27.3,106.9c-2.5,0-37.4-106.9-40.8-106.9c-3.4,0,33.4,106.9,30.9,106.9
			c-2.5,0-41-106.9-44.4-106.8c-3.4,0,37,106.9,34.5,106.9c-2.5,0-44.6-106.8-47.9-106.8c-3.4,0,40.5,106.8,38.1,106.8
			c-2.5,0-48.2-106.8-51.5-106.8c-3.4,0,44.1,106.8,41.7,106.8c-2.5,0-51.7-106.8-55.1-106.8c-3.4,0,47.7,106.8,45.2,106.8
			c-2.5,0-55.2-106.7-58.6-106.7c0,0-19,54.7-19.1,54.7s92.1-2.7,92.1-2.7c0,0-92.2,2.5-92.3,2.5c0,0,92.3-2.4,92.3-2.5
			c0,0-92.4,2.3-92.4,2.3c0,0,92.4-2.2,92.4-2.2c0,0-92.5,2-92.5,2c0,0,92.6-2,92.6-2c0,0-92.7,1.8-92.7,1.8c0,0,92.7-1.7,92.7-1.7
			c0,0-92.8,1.5-92.8,1.5c0,0,92.9-1.5,92.9-1.5c0,0-93,1.3-93,1.3s93-1.2,93-1.2c0,0-93.1,1-93.1,1c0,0,93.1-1,93.1-1
			c0,0-93.2,0.8-93.3,0.8s93.3-0.7,93.3-0.7c0,0-93.4,0.6-93.4,0.5c0,0,93.4-0.5,93.4-0.5c0,0-93.5,0.3-93.5,0.3
			c0,0,93.6-0.2,93.6-0.2c0,0-93.7,0.1-93.7,0.1c0,0,93.7,0,93.7,0c0,0-93.8-0.2-93.8-0.2c-1.6-2.5,95.9,9.9,95.6,7.5
			c-0.3-2.4-110.6-46.1-110.7-48.4c-0.1-2.1,109.8,56.6,110.5,54.6c0.6-1.9-105.6-77.5-104.5-79.3c1-1.7,104.4,79.1,105.7,77.5
			c1.1-1.5-94.1-91.1-92.4-92.5c1.6-1.3,95,89.7,96.5,88.5c1.5-1.2-82.8-97.7-80.7-98.8c2-1.1,85.2,95.6,87,94.6
			c1.7-1-72.2-101.3-69.8-102.3c2.3-0.9,75.9,99.2,77.8,98.4c1.9-0.8-62.3-103.6-59.7-104.3c2.5-0.7,66.9,101.6,68.9,100.9
			c2-0.6-52.9-105-50.2-105.6c2.7-0.6,58.2,103.3,60.3,102.8c2.1-0.5-43.9-106-41.1-106.4c2.8-0.5,49.7,104.5,51.9,104.1
			c2.2-0.4-35.1-106.6-32.2-106.9c2.9-0.3,41.3,105.5,43.5,105.2c2.2-0.3-26.5-107-23.5-107.2c2.9-0.2,32.9,106.2,35.2,106
			c2.3-0.2-18-107.1-15-107.3c3-0.1,24.7,106.7,27,106.6c2.3-0.1-9.7-107.2-6.7-107.2c3,0,16.5,107,18.8,107c2.3,0-1.4-107,1.6-107
			c3,0,8.3,107.2,10.6,107.3c2.3,0.1,6.9-106.8,9.9-106.6c3,0.1-0.1,107.2,2.2,107.4c2.3,0.2,15.2-106.3,18.2-106.1
			c3,0.2-8.6,107.1-6.3,107.3c2.3,0.3,23.7-105.7,26.6-105.3c3,0.4-17.2,106.7-15,107.1c2.3,0.4,32.3-104.8,35.1-104.3
			c2.9,0.5-26.1,106.1-23.9,106.7c2.2,0.5,41-103.6,43.8-103c2.8,0.6-35.3,105.2-33.2,105.9c2.1,0.7,50.1-101.9,52.7-101.2
			c2.7,0.7-44.9,103.8-42.9,104.6c2.1,0.8,59.5-99.5,62-98.6c2.5,0.9-55.2,101.6-53.3,102.6c1.9,1,69.6-95.9,71.8-94.8
			c2.3,1.1-66.4,98-64.7,99.1c1.7,1.3,80.4-90.1,82.2-88.7c1.9,1.4-78.9,91.3-77.5,92.8c1.5,1.6,91.9-79.3,93.2-77.7
			c1.3,1.8-92.7,77.6-91.8,79.5c1,2.1,101.5-56.6,101.7-54.5c0.3,2.3-103,45.9-102.9,48.3c0.1,2.5,46.1,40.5,45.1,43
			c-2.8,1.2,17.1-103.9,13.8-103.9c-3.4,0-36.8,107.4-39.3,107.3c-2.5,0,29.1-107.4,25.8-107.4c-3.4,0-33.2,107.3-35.7,107.3
			c-2.5,0,25.6-107.3,22.2-107.3c-3.4,0-29.6,107.3-32.1,107.3c-2.5,0,22-107.3,18.6-107.3c-3.4,0-26.1,107.3-28.5,107.3
			c-2.5,0,18.4-107.3,15-107.3c-3.4,0-22.5,107.3-25,107.2c-2.5,0,14.8-107.3,11.5-107.3c-3.4,0-18.9,107.2-21.4,107.2
			c-2.5,0,11.3-107.2,7.9-107.2c-3.4,0-15.3,107.2-17.8,107.2c-2.5,0,7.7-107.2,4.3-107.2c-3.4,0-11.8,107.2-14.2,107.2
			c-2.5,0,4.1-107.2,0.7-107.2c-3.4,0-8.2,107.2-10.7,107.1c-2.5,0,0.5-107.2-2.8-107.2c-3.4,0-4.6,107.1-7.1,107.1
			c-2.5,0-3-107.1-6.4-107.1c-3.4,0-1,107.1-3.5,107.1c-2.5,0-6.6-107.1-10-107.1c-3.4,0,42.9,60.1,42.1,63.4
			C611.8,966.8,573,983.8,570.6,983.8z"/>
	</g>
	<g class="st2">
		<path class="st11" d="M1284.3,1094.6c-1.9,0-9.1-107.1-11.6-107.1c-2.6-0.1,5.5,107,3.5,106.9c-1.9-0.1-11.2-107.1-13.8-107.1
			c-2.6-0.1,8,106.9,6.1,106.9c-1.9-0.1-13.8-107-16.3-107.1c-2.6-0.1,10.6,106.9,8.6,106.8c-1.9-0.1-16.3-107-18.9-107.1
			c-2.6-0.1,13.1,106.9,11.2,106.8c-1.9-0.1-18.9-107-21.5-107c-2.6-0.1,15.7,106.9,13.7,106.8c-1.9-0.1-21.4-107-24-107
			c-2.6-0.1,18.2,106.8,16.3,106.8c-1.9-0.1-24-106.9-26.6-107c-2.6-0.1,20.8,106.8,18.8,106.8c-1.9-0.1-26.6-106.9-29.1-107
			c-2.6-0.1,23.3,106.8,21.4,106.7c-1.9-0.1-29.1-106.9-31.7-107c-2.6-0.1,25.9,106.8,23.9,106.7c-1.9-0.1-31.7-106.9-34.3-106.9
			c-2.6-0.1,28.4,106.7,26.5,106.7c-1.9-0.1-34.2-106.9-36.8-106.9c-2.6-0.1,31,106.7,29,106.7c-1.9-0.1-36.8-106.8-39.4-106.9
			c-2.6-0.1,33.5,106.7,31.6,106.6c-1.9-0.1-16.7-100.9-19.4-102c-0.6-2.2-56.1,34.6-56.8,32.4c-0.7-2.2,100.3,21.2,100.4,19.1
			c0-2.1-105.1-41.7-105.2-43.8c-0.1-2,104.9,44.5,105.4,42.6c0.5-1.9-103.7-61.5-103.3-63.3c0.5-1.8,103.5,62.3,104.3,60.6
			c0.8-1.6-97.8-75.8-96.8-77.3c1-1.5,98.1,75.1,99.2,73.7c1.1-1.4-89.5-85.7-88.1-87.1c1.4-1.3,90.5,84.3,91.8,83.1
			c1.3-1.2-80-92.7-78.2-93.8c1.7-1.1,81.7,91,83.2,90c1.5-1-69.8-97.6-67.9-98.6c1.9-0.9,72.2,95.9,73.9,95.1
			c1.7-0.8-59.4-101.2-57.2-101.9c2.1-0.8,62.4,99.6,64.2,98.9c1.8-0.7-48.8-103.7-46.5-104.3c2.3-0.6,52.2,102.3,54.1,101.8
			c1.9-0.5-38.1-105.4-35.7-105.8c2.4-0.4,41.9,104.3,43.9,104c1.9-0.4-27.4-106.5-24.9-106.8c2.5-0.3,31.5,105.8,33.5,105.5
			c2-0.2-16.7-107-14.1-107.2c2.6-0.1,21,106.6,23,106.6c2-0.1-6.1-107.1-3.5-107.1c2.6,0,10.5,107.1,12.6,107.1
			c2.1,0.1,4.8-106.7,7.4-106.6c2.6,0.1-0.3,107,1.7,107.3c2.1,0.2,15.6-105.9,18.2-105.6c2.6,0.3-11.3,106.5-9.3,106.9
			c2.1,0.4,26.5-104.4,29-104c2.5,0.5-22.4,105.4-20.4,105.9c2,0.5,37.3-102.4,39.7-101.7c2.4,0.6-33.5,103.6-31.6,104.3
			c1.9,0.7,48.1-99.5,50.3-98.7c2.3,0.8-44.7,101-42.9,101.9c1.8,0.9,58.7-95.7,60.8-94.7c2.1,1-55.9,97.3-54.2,98.4
			c1.7,1.1,69.1-90.5,71-89.4c1.9,1.2-67,92.1-65.5,93.4c1.6,1.3,79.1-83.5,80.7-82.1c1.6,1.4-77.8,84.7-76.4,86.2
			c1.3,1.5,88.2-73.7,89.4-72.1c1.2,1.6-87.7,74-86.6,75.7c1.1,1.8,95.5-59.9,96.1-58c0.7,1.9-95.6,58.7-94.9,60.6
			c0.7,2,99.1-40.7,99.3-38.7c0.1,2.1-99.3,37.4-99,39.6c0.3,2.2,97-16,96.5-13.8c-0.5,2.2-59.7-38-60.1-35.7
			c-2.5,1-4,102.9-5.9,102.9c-1.9,0,20.2-107.3,17.6-107.3c-2.6,0-23.4,107.3-25.3,107.3c-1.9,0,17.6-107.3,15.1-107.3
			c-2.6,0-20.8,107.3-22.7,107.3c-1.9,0,15.1-107.3,12.5-107.3c-2.6,0-18.2,107.3-20.2,107.3c-1.9,0,12.5-107.3,9.9-107.3
			c-2.6,0-15.7,107.2-17.6,107.2c-1.9,0,9.9-107.2,7.4-107.2c-2.6,0-13.1,107.2-15,107.2c-1.9,0,7.4-107.2,4.8-107.2
			c-2.6,0-10.6,107.2-12.5,107.2c-1.9,0,4.8-107.2,2.3-107.2c-2.6,0-8,107.2-9.9,107.2c-1.9,0,2.3-107.2-0.3-107.2
			c-2.6,0-5.5,107.1-7.4,107.1c-1.9,0-0.3-107.1-2.8-107.2s-2.9,107.1-4.8,107.1c-1.9,0-2.8-107.1-5.4-107.1
			c-2.6,0-0.3,107.1-2.3,107.1c-1.9,0-5.4-107.1-8-107.1c-2.6,0,2.2,107.1,0.3,107.1c-1.9,0-54.5-64.4-54.4-61.9
			C1239.5,1059.4,1286.2,1094.6,1284.3,1094.6z"/>
	</g>
</g>
<g id="Subhead" class="st2">
	<text transform="matrix(1 0 0 1 616.98 284)" class="st10 st12 st13">The latest in country music</text>
</g>
<g id="Header" class="st2">
	<text transform="matrix(1 0 0 1 541.0273 199.7041)" class="st10 st14 st15 st16">Gone Country</text>
</g>
<g id="Music" class="st2">
	<g class="st3">
		<g>
			<path class="st1" d="M622.5,532.2l5.6-1.6v7.6c0,0.5,0.4,0.8,0.9,0.6l0.1,0c0.5-0.1,0.9-0.7,0.9-1.2v-7.6l4.4-1.3v7.6
				c0,0.5,0.4,0.8,0.9,0.6l0.1,0c0.5-0.1,0.9-0.7,0.9-1.2v-7.6l5.4-1.6c0.5-0.1,0.9-0.7,0.9-1.2v-1.9c0-0.5-0.4-0.8-0.9-0.6
				l-5.4,1.6v-6.2l5.4-1.6c0.5-0.1,0.9-0.7,0.9-1.2v-1.6c0-0.5-0.4-0.8-0.9-0.6l-5.4,1.6v-6.7c0-0.5-0.4-0.8-0.9-0.6l-0.1,0
				c-0.5,0.1-0.9,0.7-0.9,1.2v6.7l-4.4,1.3v-6.7c0-0.5-0.4-0.8-0.9-0.6l-0.1,0c-0.5,0.1-0.9,0.7-0.9,1.2v6.7l-5.6,1.6
				c-0.5,0.1-0.9,0.7-0.9,1.2v1.6c0,0.5,0.4,0.8,0.9,0.6l5.6-1.7v6.2l-5.6,1.6c-0.5,0.1-0.9,0.7-0.9,1.2v1.9
				C621.7,532.1,622.1,532.4,622.5,532.2z M629.9,520.2l4.4-1.3v6.2l-4.4,1.3V520.2z"/>
		</g>
		<g>
			<path class="st1" d="M640.2,551.3l5.6-1.6v7.6c0,0.5,0.4,0.8,0.9,0.6l0.1,0c0.5-0.1,0.9-0.7,0.9-1.2v-7.6l4.4-1.3v7.6
				c0,0.5,0.4,0.8,0.9,0.6l0.1,0c0.5-0.1,0.9-0.7,0.9-1.2v-7.6l5.4-1.6c0.5-0.1,0.9-0.7,0.9-1.2v-1.9c0-0.5-0.4-0.8-0.9-0.6
				l-5.4,1.6v-6.2l5.4-1.6c0.5-0.1,0.9-0.7,0.9-1.2v-1.6c0-0.5-0.4-0.8-0.9-0.6l-5.4,1.6v-6.7c0-0.5-0.4-0.8-0.9-0.6l-0.1,0
				c-0.5,0.1-0.9,0.7-0.9,1.2v6.7l-4.4,1.3v-6.7c0-0.5-0.4-0.8-0.9-0.6l-0.1,0c-0.5,0.1-0.9,0.7-0.9,1.2v6.7l-5.6,1.6
				c-0.5,0.1-0.9,0.7-0.9,1.2v1.6c0,0.5,0.4,0.8,0.9,0.6l5.6-1.6v6.2l-5.6,1.6c-0.5,0.1-0.9,0.7-0.9,1.2v1.9
				C639.4,551.1,639.8,551.4,640.2,551.3z M647.6,539.3l4.4-1.3v6.2l-4.4,1.3V539.3z"/>
		</g>
		<g>
			<path class="st1" d="M786,558.1c0,0.6,0.5,1,1.1,0.8l0.1,0c0.6-0.2,1.1-0.8,1.1-1.4v-13.7v-11.7l-7.6,2.2v-8.1
				c0-0.6-0.5-1-1.1-0.8l-0.1,0c-0.6,0.2-1.1,0.8-1.1,1.4v8.1v16.2l7.6-2.2V558.1z M780.6,546v-7.6l5.4-1.6v7.6L780.6,546z"/>
		</g>
		<g>
			<path class="st1" d="M1079.1,598.1c0,0.6,0.5,1,1.1,0.8l0.1,0c0.6-0.2,1.1-0.8,1.1-1.4v-13.7v-11.7l-7.6,2.2v-8.1
				c0-0.6-0.5-1-1.1-0.8l-0.1,0c-0.6,0.2-1.1,0.8-1.1,1.4v8.1v16.2l7.6-2.2V598.1z M1073.7,586v-7.6l5.4-1.6v7.6L1073.7,586z"/>
		</g>
		<g>
			<path class="st1" d="M764.3,545.7c-0.6-0.2-40.9-8.5-41.9-8.7c-1-0.2-2,0.1-2,1.2l-0.2,35.9c-2.6-1.8-6.7-2.3-10.7-1
				c-6,1.9-9.7,7-8.4,11.3c1.4,4.3,7.3,6.3,13.3,4.4c5.2-1.6,8.6-5.6,8.6-9.4l0.2-27c0-0.9,0.6-1.1,1.1-1c0.5,0.1,36.7,7.6,37.2,7.7
				c0.6,0.1,0.9,0.7,0.9,1l-0.1,22.3c-2.6-1.8-6.7-2.3-10.7-1c-6,1.9-9.7,7-8.4,11.3c1.4,4.3,7.3,6.3,13.3,4.4
				c5.2-1.7,8.8-5.8,8.6-9.7l0.3-40.5C765.5,546.1,764.9,545.9,764.3,545.7z M723.3,547.9l0-2.8c0-0.9,0.6-1.1,1.1-1
				c0.5,0.1,36.7,7.6,37.2,7.7c0.6,0.1,0.8,0.6,0.8,1l0,3.2C755.2,554.5,728.5,549,723.3,547.9z"/>
		</g>
		<g>
			<path class="st1" d="M897.8,534.5c0-1.2-1.1-1.5-2.2-1.3c-1.1,0.2-44.8,9.3-45.5,9.5c-0.7,0.2-1.3,0.4-1.3,1.3l0.3,40.1
				c-2.8-1.9-7.2-2.5-11.6-1.1c-6.5,2.1-10.6,7.5-9.1,12.3c1.5,4.7,8,6.9,14.5,4.8c5.5-1.7,9.3-6,9.4-10.1l0,0l-0.3-39.5
				c0-0.4,0.3-0.9,0.9-1.1c0.6-0.1,39.9-8.3,40.4-8.4c0.5-0.1,1.2,0.1,1.2,1.1l0.2,32.7c-2.8-1.9-7.2-2.4-11.6-1
				c-6.5,2.1-10.6,7.5-9.1,12.3c1.5,4.7,8,6.9,14.5,4.8c5.7-1.8,9.6-6.3,9.4-10.5L897.8,534.5z"/>
		</g>
		<g>
			<path class="st1" d="M642.9,575.3c-2.4-2.3-5.3-1.3-7.5,1.5c0,0,0-16.2,0-16.5c0-0.3-0.3-0.7-1.2-0.7c-0.9,0-1.1,0.4-1.1,0.7
				v31.1C634.8,589.3,648.6,580.6,642.9,575.3z M635.5,579.9c1.3-2.3,3.5-3.3,5.3-1.7c3.1,2.7-4.9,8.8-5.3,9.2L635.5,579.9z"/>
		</g>
		<g>
			<path class="st1" d="M1311.9,534.4c0-11-15-18.4-19.7-23c-0.6-0.5-1.4-1-2.7-1c-1.3,0-2.2,0.5-2.2,1.5l0.3,49.9l0.1,0.2
				c-3.3-2.2-8.5-2.7-13.6-0.8c-7.2,2.7-11.5,9.2-9.5,14.4c2,5.2,9.4,7.3,16.7,4.6c6-2.3,10-7.1,10-11.7v0c0-0.1,0-0.2,0-0.3
				l-0.1-22.7c1.8,0.4,17,4,17,11.4c0,4.6-2,7.6-4.1,9.5c-0.4,0.4,0.3,1,0.9,0.6c3.4-2,7-5.6,7-11.9c0-3.9-1.9-7.4-4.6-10.4
				C1309.8,542.5,1311.9,539.3,1311.9,534.4z M1306.1,543.4c-5.6-5.7-13.3-9.8-15-12.6l0-6c1.2,0.3,17.1,3.9,17.1,11.5
				C1308.1,539.3,1307.2,541.6,1306.1,543.4z"/>
		</g>
		<g>
			<path class="st1" d="M604.4,559.1c-1.4-0.3-2.8-0.3-4.1-0.3c-0.3-3.5-0.3-7.3-0.6-10.8c7.5-8.9,14.3-18.7,13.3-28.7
				c-1-10.6-6.2-14.3-12.3-13.8c-6.1,0.6-7.7,7.1-7.2,13.5c0.6,7.6,1.3,15.6,1.9,23.7c-4.9,5.2-11.6,11.3-14.6,15
				c-11.7,13.9-8.2,27-5.4,31.6c4.8,7.9,14.9,11.4,22.7,11.3c0,0,0.4,11.6-4.8,13.4c-1.2,0.4-2.8,0.4-4.3,0.1c2-2.2,0.8-6-2.4-8.1
				c-3-2.1-6.7-2-8.2,0.2c-1.8,2.6,0.3,6.7,4,8.4c2.4,1.3,7.1,3.3,11.6,2c7.6-2.3,7.6-16.4,7.6-16.4c9-2,16-9.1,17-20.8
				C619.4,570.1,613.8,560.8,604.4,559.1z M598.1,592.9c-5.9,0.3-12.2-3.2-15.1-7.9c-8.2-13.5,9.4-28.4,13.2-32.7
				c0.2,2.1,0.3,4.9,0.5,7c-6.1,2.5-9.5,7.9-11.1,14.9c-0.2,0.8,0.2,1.5,0.9,1.6c0.7,0.1,1-0.2,1.3-1.3c1.2-4.8,4-8.9,9.3-10.2
				C597.7,574.7,598.1,585.2,598.1,592.9z M597,520.8c-0.5-6.6,1.1-9.4,3.4-9.7c2.4-0.2,5.3,2.7,6,8.9c0.7,6.4-2.9,12.9-7.7,18.9
				C598,532.3,597.4,526.1,597,520.8z M612.6,579.2c-0.8,7.6-5.5,11.8-11.1,13.1c0.2-8.4-0.2-18.5-0.9-29c0.9,0,1.8,0.1,2.6,0.3
				C609.1,564.9,613.3,572.4,612.6,579.2z"/>
		</g>
		<g>
			<path class="st1" d="M1044.9,569.7c0,0-2,0-5.1,0c0.2-0.7,0.3-1.4,0.3-2.1v0c0-0.1,0-0.2,0-0.3c0-4.5-0.2-54.9-0.2-55.9
				c0-1-1-1.5-1.9-1.5s-1.9,0.6-1.9,1.6l0.3,49.4l0.1,0.2c-3.3-2.2-8.4-2.7-13.5-0.8c-5,1.9-8.6,5.6-9.6,9.4c-3.5,0-5.9,0-6,0
				c-0.6,0-0.9,0.6-0.9,1.2c0,0.6,0.4,1.2,1,1.2c0,0,2.3,0,5.7,0c0,0.9,0.2,1.7,0.5,2.6c2,5.2,9.4,7.2,16.5,4.5
				c4-1.5,7.1-4.2,8.7-7.2c3.5,0,5.9,0,6.1,0c0.6,0,0.9-0.6,0.9-1.2C1045.9,570.3,1045.5,569.7,1044.9,569.7z"/>
		</g>
		<g>
			<path class="st1" d="M1009.1,491.8c0-1-1-1.5-1.9-1.5c-0.9,0-1.9,0.6-1.9,1.6l0.3,49.4l0.1,0.2c-3.3-2.2-8.4-2.6-13.5-0.8
				c-7.2,2.7-11.4,9.1-9.4,14.3c2,5.2,9.4,7.2,16.5,4.5c6.1-2.3,10.1-7.3,9.9-11.9C1009.3,543.1,1009.1,492.7,1009.1,491.8z
				 M997,556.2c-5.8,1.1-11.1-0.8-11.7-4.2c-0.6-3.4,3.6-7,9.4-8.1c5.8-1.1,11.1,0.8,11.7,4.2C1007,551.5,1002.8,555.2,997,556.2z"
				/>
		</g>
		<g>
			<g>
				<path class="st1" d="M823.7,549.8c0-4.4-0.2-54.9-0.2-55.9c0-1-1-1.5-1.9-1.5c-0.9,0-1.9,0.6-1.9,1.6l0.3,49.4l0.1,0.2
					c-3.3-2.2-8.4-2.7-13.5-0.8c-7.2,2.7-11.4,9.1-9.4,14.3c2,5.2,9.4,7.2,16.5,4.5c5.9-2.2,9.9-7,9.9-11.6c0,0,0,0,0,0
					C823.7,550,823.7,549.9,823.7,549.8z"/>
			</g>
			<g>
				<path class="st1" d="M831.4,546.8c-1.8,0-3.3,1.5-3.3,3.3c0,1.8,1.5,3.3,3.3,3.3c1.8,0,3.3-1.5,3.3-3.3
					C834.6,548.3,833.2,546.8,831.4,546.8z"/>
			</g>
		</g>
		<g>
			<path class="st1" d="M1240.1,537.1c-0.3-0.5-1.3-1-2.2-1c-1,0-1.9,0.4-1.9,1.4l0.3,46l0.1,0.1c-3.1-2.1-7.9-2.5-12.5-0.7
				c-6.7,2.5-10.6,8.5-8.8,13.3c1.8,4.8,8.7,6.7,15.4,4.2c5.7-2.1,9.4-6.8,9.2-11.1l-0.2-35.1c1.4,0.4,15.7,4.9,15.7,14.3
				c0,5.8-1.8,9.5-3.8,11.9c-0.4,0.5,0.3,1.2,0.8,0.8c3.2-2.5,6.5-7,6.5-15C1258.6,552.3,1244,542.8,1240.1,537.1z"/>
		</g>
		<g>
			<path class="st1" d="M977.1,569.5c0-4.5-0.2-54.9-0.2-55.9c0-1-0.9-1.5-1.9-1.5c-0.9,0-1.9,0.6-1.9,1.6l0.3,49.4l0.1,0.2
				c-3.3-2.2-8.4-2.7-13.5-0.8c-7.2,2.7-11.4,9.1-9.4,14.3c2,5.2,9.4,7.2,16.5,4.5c5.9-2.2,9.9-7,9.9-11.6c0,0,0,0,0,0
				C977.1,569.7,977.1,569.6,977.1,569.5z"/>
		</g>
		<g>
			<path class="st1" d="M1334.9,579.1c6.2-2.3,9.9-7.9,8.2-12.4c-1.7-4.5-8.1-6.2-14.3-3.9c-5.2,2-8.6,6.2-8.6,10.1l-0.3,56.2
				c0,0.9,0.9,1.3,1.8,1.3c0.9,0,1.8-0.4,2.1-0.9c3.7-5.3,17.3-14.1,17.3-27.3c0-7.4-3.1-11.6-6-13.9c-0.5-0.4-1.1,0.3-0.8,0.7
				c1.8,2.2,3.5,5.7,3.5,11.1c0,8.7-13.3,13-14.6,13.3l0.1-35C1326.2,580.3,1330.6,580.7,1334.9,579.1z"/>
		</g>
		<g>
			<path class="st1" d="M698.1,546.2c-0.8-0.2-1.2,0.2-1.5,0.6c0,0-2.5,3.1-6.6,4.5c0.4-2.1-0.8-4.5-3.4-5.5c-2.7-1-5.6-0.1-6.5,2.2
				c-0.9,2.3,0.5,5,3.2,6.1c2.7,1.1,7.7,0.4,12.7-4.4l-1.9,8.6c-1.1,1-3,2.6-5.8,3.6c0.4-2.1-0.8-4.5-3.4-5.5
				c-2.7-1-5.6-0.1-6.5,2.2c-0.9,2.3,0.5,5,3.2,6.1c2.5,1,7.2,0.5,11.9-3.6c0,0-3.7,17.3-3.8,17.6c-0.1,0.3,0.1,0.6,1,0.8
				c0.9,0.2,1.3,0.1,1.4-0.3c0.1-0.3,6.8-31.6,6.9-31.9C699,546.9,698.9,546.4,698.1,546.2z"/>
		</g>
		<g>
			<path class="st1" d="M1061.1,524.1c-7,2.6-11.1,8.9-9.2,14c1.9,5.1,9.1,7,16.1,4.4c7-2.6,11.1-8.9,9.2-14
				C1075.3,523.5,1068.1,521.5,1061.1,524.1z M1065.7,539.3c-5.7,1.1-10.8-0.8-11.5-4.1c-0.6-3.3,3.5-6.9,9.2-7.9
				c5.7-1.1,10.8,0.8,11.5,4.1C1075.5,534.7,1071.4,538.3,1065.7,539.3z"/>
		</g>
		<g>
			<path class="st1" d="M1213.3,517.1c0-1.3-1.2-1.7-2.4-1.4c-1.2,0.2-49.9,10.3-50.6,10.5c-1.2,0.2-49.9,10.3-50.6,10.5
				c-0.7,0.2-1.4,0.5-1.4,1.4l0.3,44.6c-3.2-2.1-8-2.7-12.9-1.2c-7.2,2.3-11.7,8.4-10.1,13.6c1.7,5.2,8.9,7.6,16.1,5.3
				c6.1-1.9,10.3-6.6,10.4-11.2l0,0.1l-0.3-44c0-0.4,0.3-1.1,1-1.2c0.7-0.1,44.4-9.2,45-9.4c0.6-0.1,1.3,0.1,1.3,1.2l0.3,36.4
				c-3.2-2.1-8-2.7-12.9-1.2c-7.2,2.3-11.8,8.4-10.1,13.6c1.7,5.2,8.9,7.6,16.1,5.3c6.4-2,10.6-7,10.4-11.7l-0.3-43.7
				c0-0.5,0.2-1.1,1.1-1.3c0.7-0.1,44-9.2,44.6-9.3c0.6-0.1,1.3,0.1,1.3,1.2l0.3,36.7c-3.2-2.1-8-2.7-12.9-1.2
				c-7.2,2.3-11.8,8.4-10.1,13.6c1.7,5.2,8.9,7.6,16.1,5.3c6.3-2,10.5-6.8,10.4-11.5L1213.3,517.1z"/>
		</g>
		<g>
			<path class="st1" d="M922.8,527.8c-2.6-4.4-7.2-8.1-7.8-8.6c-0.4-0.3-1,0.3-0.6,0.7c0.8,0.7,2.3,2.8,2.3,5.6
				c0,2.4-3.5,6.9-4.5,8.6c-0.2,0.4-0.2,0.7,0,1c0.2,0.2,5.4,5.5,6.9,7c0.2,0.2,0.2,0.3,0,0.2c-1.3-0.4-4.5-0.3-5.1,2.3
				c-0.6,2.8,3.2,5.2,5.2,6.5c0.4,0.2,0.5-0.2,0.3-0.5c-1-1.2-2.3-3.3-1.8-4.9c0.6-1.8,3.3-2,4.3-2.2c0.4-0.1,0.4-0.3,0-0.7
				c-1.4-1.4-4.6-4.9-4.6-7.9C917.2,531.2,922.8,527.8,922.8,527.8z"/>
		</g>
		<g>
			<path class="st1" d="M934,600c-0.1,0.3,0.2,0.6,1.2,0.8c1.1,0.2,1.5-0.1,1.5-0.4c0,0,6.1-28.3,6.2-28.5c0.1-0.4-0.9-0.7-1.5-0.6
				c-0.6,0.1-1,0.4-1.4,0.8c0,0-2.8,3.5-7.7,5.1c0.5-2.4-0.9-5.2-3.9-6.3c-3.1-1.2-6.5-0.1-7.5,2.5c-1.1,2.6,0.6,5.8,3.7,7
				c3.1,1.2,8.9,0.5,14.7-5.1L934,600z"/>
		</g>
		<g>
			<polygon class="st1" points="1350.8,523.2 562.1,523.2 562.1,521.9 1351.2,521.9 1351.2,523.2 			"/>
			<rect x="562.8" y="541.3" class="st1" width="788" height="1.3"/>
			<rect x="562.8" y="560.8" class="st1" width="788" height="1.3"/>
			<rect x="562.8" y="580.3" class="st1" width="788" height="1.3"/>
			<rect x="562.1" y="599.8" class="st1" width="788.6" height="1.3"/>
			<rect x="562.1" y="522.5" class="st1" width="1.3" height="77.9"/>
			<polygon class="st1" points="1351.2,601.1 1350.3,601.1 1350.3,522.5 1351.2,522.5 1351.2,600.4 			"/>
		</g>
	</g>
</g>
</svg>
