<?xml version="1.0" encoding="utf-8"?>
<!-- Generator: Adobe Illustrator 25.3.1, SVG Export Plug-In . SVG Version: 6.00 Build 0)  -->
<svg version="1.1" id="Layer_1" xmlns="http://www.w3.org/2000/svg" xmlns:xlink="http://www.w3.org/1999/xlink" x="0px" y="0px"
	 viewBox="0 0 512 512" style="enable-background:new 0 0 512 512;" xml:space="preserve">
<style type="text/css">
	.st0{fill:#05284F;}
</style>
<path class="st0" d="M464,80h-61.5C377.8,52.7,321.5,0,256,0S134.2,52.7,109.5,80H48c-26.5,0-48,21.5-48,48v336
	c0,26.5,21.5,48,48,48l0,0h416c26.5,0,48-21.5,48-48l0,0V128C512,101.5,490.5,80,464,80z M256,48c26.9,0,54,14.8,76.2,32H179.8
	C202,62.8,229.1,48,256,48z M464,464H48V272h416V464z M464,224H48v-96h416V224z M128,400c-8.8,0-16,7.2-16,16s7.2,16,16,16
	s16-7.2,16-16S136.8,400,128,400z M192,336c8.8,0,16-7.2,16-16s-7.2-16-16-16s-16,7.2-16,16S183.2,336,192,336z M96,384
	c8.8,0,16-7.2,16-16s-7.2-16-16-16s-16,7.2-16,16S87.2,384,96,384z M128,336c8.8,0,16-7.2,16-16s-7.2-16-16-16s-16,7.2-16,16
	S119.2,336,128,336z M256,336c8.8,0,16-7.2,16-16s-7.2-16-16-16c-8.8,0-16,7.2-16,16S247.2,336,256,336z M384,336
	c8.8,0,16-7.2,16-16s-7.2-16-16-16s-16,7.2-16,16S375.2,336,384,336z M320,336c8.8,0,16-7.2,16-16s-7.2-16-16-16s-16,7.2-16,16
	S311.2,336,320,336z M160,384c8.8,0,16-7.2,16-16s-7.2-16-16-16s-16,7.2-16,16S151.2,384,160,384z M352,384c8.8,0,16-7.2,16-16
	s-7.2-16-16-16s-16,7.2-16,16S343.2,384,352,384z M384,400c-8.8,0-16,7.2-16,16s7.2,16,16,16s16-7.2,16-16S392.8,400,384,400z
	 M320,400c-8.8,0-16,7.2-16,16s7.2,16,16,16s16-7.2,16-16S328.8,400,320,400z M192,400c-8.8,0-16,7.2-16,16s7.2,16,16,16
	s16-7.2,16-16S200.8,400,192,400z M416,384c8.8,0,16-7.2,16-16s-7.2-16-16-16s-16,7.2-16,16S407.2,384,416,384z M224,384
	c8.8,0,16-7.2,16-16s-7.2-16-16-16s-16,7.2-16,16S215.2,384,224,384z M256,400c-8.8,0-16,7.2-16,16s7.2,16,16,16c8.8,0,16-7.2,16-16
	S264.8,400,256,400z M288,384c8.8,0,16-7.2,16-16s-7.2-16-16-16s-16,7.2-16,16S279.2,384,288,384z M112,200c13.3,0,24-10.7,24-24
	s-10.7-24-24-24s-24,10.7-24,24S98.7,200,112,200z M192,200c13.3,0,24-10.7,24-24s-10.7-24-24-24s-24,10.7-24,24S178.7,200,192,200z
	"/>
</svg>
