<?xml version="1.0" encoding="utf-8"?>
<!-- Generator: Adobe Illustrator 25.3.1, SVG Export Plug-In . SVG Version: 6.00 Build 0)  -->
<svg version="1.1" id="Layer_1" xmlns="http://www.w3.org/2000/svg" xmlns:xlink="http://www.w3.org/1999/xlink" x="0px" y="0px"
	 viewBox="0 0 384 512" style="enable-background:new 0 0 384 512;" xml:space="preserve">
<style type="text/css">
	.st0{fill:#05284F;}
</style>
<path class="st0" d="M369.9,97.9L286,14c-9-9-21.2-14.1-33.9-14.1H48C21.5,0,0,21.5,0,48v416c0,26.5,21.5,48,48,48h288
	c26.5,0,48-21.5,48-48V131.9C384,119.2,378.9,106.9,369.9,97.9z M332.1,128H256V51.9L332.1,128z M48,464V48h160v104
	c0,13.3,10.7,24,24,24h104v288H48z M211.1,234.1l46.8,46.8c2,2,2,5.2,0,7.2L143.4,402.6L95.2,408c-6.4,0.7-11.9-4.7-11.2-11.2
	l5.4-48.2l114.5-114.5C205.9,232.1,209.1,232.1,211.1,234.1L211.1,234.1z M294.1,251.9l-19.5,19.5c-2,2-5.2,2-7.2,0l-46.8-46.8
	c-2-2-2-5.2,0-7.2l19.5-19.5c7.9-7.9,20.7-7.9,28.6,0l25.4,25.4C302,231.2,302,244,294.1,251.9L294.1,251.9z"/>
</svg>
